<?xml version="1.0" encoding="UTF-8" standalone="no"?> <!-- Created with Vectornator for iOS (http://vectornator.io/) --><!DOCTYPE svg PUBLIC "-//W3C//DTD SVG 1.1//EN" "http://www.w3.org/Graphics/SVG/1.1/DTD/svg11.dtd">
<svg viewBox="0 0 200 105" xmlns="http://www.w3.org/2000/svg" xmlns:vectornator="http://vectornator.io" xml:space="preserve" style="fill-rule:nonzero;clip-rule:evenodd;stroke-linecap:round;stroke-linejoin:round;" version="1.1" height="100%" width="100%" xmlns:xlink="http://www.w3.org/1999/xlink">
<metadata>
<vectornator:setting key="WDSnapToEdges" value="false"/>
<vectornator:setting value="true" key="UndoHistoryDisabled"/>
<vectornator:setting value="false" key="WDSnapToPoints"/>
<vectornator:setting key="VNDimensionsVisible" value="true"/>
<vectornator:setting key="VNSnapToGuides" value="true"/>
<vectornator:setting key="WDOutlineMode" value="false"/>
<vectornator:setting key="WDGuidesVisible" value="true"/>
<vectornator:setting value="false" key="WDDisplayWhiteBackground"/>
<vectornator:setting key="WDCMYKEnabledKey" value="false"/>
<vectornator:setting value="false" key="WDSnapToGrid"/>
<vectornator:setting value="Points" key="WDUnits"/>
<vectornator:setting value="true" key="WDRulersVisible"/>
<vectornator:setting key="WDDynamicGuides" value="false"/>
<vectornator:setting value="false" key="WDIsolateActiveLayer"/>
<vectornator:setting key="IsTimeLapseWatermarkDisabled" value="false"/>
</metadata>
<defs/>
<g vectornator:layerName="Katman 1" id="Katman 1">
<path d="M11.8976+33.7657C11.9998+30.6492+14.8353+27.8903+17.9774+27.9414C22.5244+27.9414+27.0459+27.9414+31.593+27.9414C33.8665+31.1601+36.1655+34.3532+38.4135+37.5719C35.7057+41.4037+32.9724+45.2355+30.2646+49.0928C29.1662+50.7021+29.1662+52.8224+30.2646+54.4317C32.9724+58.2891+35.7057+62.1208+38.4391+65.9526C36.1911+69.1713+33.892+72.3644+31.6185+75.5831L17.773+75.5831C14.631+75.5065+11.8721+72.6454+11.9232+69.5034C11.9232+57.5993+11.9232+45.6697+11.8976+33.7657Z" opacity="1" fill="#ec6e56"/>
<path fill="#ec6e56" d="M36.3444+50.7277C37.9282+48.4797+39.512+46.2317+41.1213+44.0093C42.7307+46.2828+44.3655+48.5563+45.9749+50.8299C46.4092+51.4429+46.3581+52.2604+45.8727+52.8479C44.2889+55.0704+42.7051+57.3183+41.1213+59.5152C39.4864+57.2162+37.8515+54.9171+36.2166+52.618C35.8335+52.056+35.8846+51.2641+36.3444+50.7277Z" opacity="1"/>
<path d="M36.6254+27.9414C42.3986+27.9414+48.1718+27.9414+53.9705+27.9414C56.9082+28.0691+59.3606+30.8535+59.3095+33.7657C59.3095+45.7464+59.3095+57.7526+59.3095+69.7333C59.3606+72.671+56.9338+75.4299+53.9705+75.5576C48.1973+75.5576+42.4241+75.5576+36.6509+75.5576C41.6067+68.5838+46.5624+61.6355+51.4927+54.6361C52.3101+53.5377+52.6422+52.1582+52.3612+50.8043C52.2079+49.7825+51.5693+48.9395+50.9817+48.1221C46.2048+41.4292+41.4023+34.6853+36.6254+27.9414Z" opacity="1" fill="#003894"/>
<path opacity="1" d="M71.4945+38.0828C75.8372+38.0062+80.1799+38.0573+84.5481+38.0573C86.9238+38.1339+89.4783+38.0573+91.6241+39.2834C93.9998+40.5607+95.6858+43.2174+95.507+45.9507C95.4559+48.5052+93.7699+50.8299+91.5475+51.9794C93.1568+52.6436+94.7917+53.5121+95.788+55.0193C98.0871+58.3401+97.0397+63.1937+94.0509+65.7227C92.3905+67.1532+90.1681+67.6897+88.0478+67.7408C82.6833+67.9451+77.2933+67.8429+71.9288+67.8685C71.4945+67.9707+71.0603+67.6897+70.9836+67.2554C70.9581+67.1532+70.9581+67.051+70.9836+66.9489C70.9836+57.676+70.9836+48.4286+70.9836+39.1557C70.8814+38.7214+70.9836+38.1339+71.4945+38.0828ZM77.3955+43.2174L77.3955+49.8081C79.8478+49.8081+82.3257+49.8081+84.778+49.7825C85.902+49.757+87.0771+49.6548+87.9967+48.9651C89.6571+47.79+89.5805+44.8523+87.7924+43.8305C86.7961+43.2685+85.621+43.294+84.497+43.2685C82.1469+43.2174+79.7712+43.2174+77.3955+43.2174L77.3955+43.2174ZM77.3955+62.6317C80.1033+62.6317+82.811+62.6573+85.5188+62.6062C86.6428+62.5551+87.8434+62.5295+88.8142+61.8909C90.8833+60.6392+90.8322+57.1651+88.8142+55.8878C87.8434+55.2236+86.6173+55.147+85.4677+55.0704C82.7855+54.9171+80.1033+54.9937+77.3955+54.9682C77.3955+57.5227+77.3955+60.0772+77.3955+62.6317L77.3955+62.6317Z" fill="#3f3637"/>
<path opacity="1" fill="#3f3637" d="M131.27+38.9003C131.219+38.4915+131.5+38.0828+131.909+38.0317C131.986+38.0317+132.088+38.0317+132.164+38.0317C139.496+38.0317+146.802+38.0317+154.108+38.0317C154.491+37.9806+154.874+38.2361+154.925+38.6193C154.925+38.6448+154.925+38.6448+154.925+38.6704C154.976+39.9732+154.976+41.3015+154.925+42.6043C154.9+43.013+154.542+43.294+154.133+43.2429C154.108+43.2429+154.108+43.2429+154.082+43.2429C148.615+43.2685+143.149+43.2429+137.682+43.2429C137.682+45.3376+137.682+47.4324+137.682+49.5526L152.192+49.5526C152.652+49.476+153.214+49.7825+153.162+50.319C153.188+51.5707+153.188+52.8224+153.162+54.0486C153.214+54.585+152.652+54.8405+152.192+54.7638L137.682+54.7638L137.682+62.5806C143.149+62.6062+148.615+62.5806+154.057+62.5806C154.465+62.5296+154.823+62.785+154.9+63.1937C154.9+63.2448+154.9+63.2959+154.9+63.347C154.925+64.5987+154.925+65.8504+154.9+67.1021C154.9+67.4853+154.567+67.8174+154.184+67.7919C154.159+67.7919+154.108+67.7919+154.082+67.7919C146.751+67.7919+139.419+67.7919+132.088+67.7919C131.679+67.8685+131.27+67.5875+131.219+67.1532C131.194+67.0766+131.194+66.9744+131.219+66.8978C131.27+57.5993+131.27+48.2753+131.27+38.9003Z"/>
<path d="M100.846+39.1557C100.82+38.7981+100.846+38.2105+101.357+38.2361C103.068+38.185+104.805+38.2105+106.517+38.2361C106.9+38.185+107.156+38.5937+107.105+38.9258C107.105+44.9034+107.105+50.9065+107.105+56.8841C111.345+50.8299+115.586+44.7757+119.826+38.6959C120.005+38.3638+120.337+38.185+120.72+38.2105C123.045+38.2105+125.369+38.185+127.668+38.2361C124.552+42.9364+121.257+47.5345+118.089+52.2093C121.205+57.0118+124.373+61.7887+127.49+66.5657C127.873+66.9233+127.617+67.6897+127.055+67.613C124.986+67.6386+122.943+67.613+120.873+67.613C118.753+64.1644+116.607+60.7414+114.487+57.2928C111.984+60.7414+109.557+64.2411+107.002+67.6641C105.112+67.6386+103.247+67.7152+101.357+67.6386C100.897+67.6386+100.846+67.0766+100.871+66.719C100.846+57.5227+100.846+48.3264+100.846+39.1557Z" opacity="1" fill="#3f3637"/>
<path d="M158.246+39.0024C157.939+38.747+158.093+38.1339+158.527+38.2105C160.647+38.185+162.742+38.185+164.862+38.2105C165.245+38.185+165.424+38.5937+165.628+38.8492C167.493+41.7358+169.384+44.6224+171.248+47.509C173.139+44.5457+175.029+41.5825+176.919+38.6193C177.149+38.1339+177.686+38.2105+178.146+38.185C180.036+38.2105+181.926+38.1595+183.791+38.2105C184.225+38.1595+184.379+38.7725+184.072+39.028C181.083+43.5495+178.069+48.0454+175.055+52.5669C178.35+57.3694+181.696+62.1464+184.992+66.9233C185.298+67.1788+185.171+67.7919+184.711+67.7408C182.769+67.7663+180.802+67.7408+178.861+67.7663C178.401+67.7408+177.814+67.843+177.558+67.3576C175.412+64.1644+173.267+60.9458+171.121+57.7526C169+60.8947+166.906+64.0367+164.786+67.2043C164.581+67.5109+164.326+67.843+163.891+67.7663C161.797+67.7663+159.676+67.7919+157.582+67.7663C157.071+67.843+156.943+67.2043+157.275+66.9233C160.571+62.0697+163.917+57.2162+167.212+52.3626C164.249+47.8922+161.235+43.4473+158.246+39.0024Z" opacity="1" fill="#3f3637"/>
<path opacity="1" fill="none" d="M5.84342+21.5551L191.046+21.5551L191.046+21.5551L191.046+82.0972L191.046+82.0972L5.84342+82.0972L5.84342+82.0972L5.84342+21.5551L5.84342+21.5551Z"/>
</g>
</svg>
