<?xml version="1.0" encoding="UTF-8" standalone="no"?> <!-- Created with Vectornator for iOS (http://vectornator.io/) --><!DOCTYPE svg PUBLIC "-//W3C//DTD SVG 1.1//EN" "http://www.w3.org/Graphics/SVG/1.1/DTD/svg11.dtd">
<svg xml:space="preserve" height="100%" version="1.1" width="100%" style="fill-rule:nonzero;clip-rule:evenodd;stroke-linecap:round;stroke-linejoin:round;" xmlns:vectornator="http://vectornator.io" xmlns:xlink="http://www.w3.org/1999/xlink" xmlns="http://www.w3.org/2000/svg" viewBox="0 0 200 105">
<metadata>
<vectornator:setting value="false" key="WDCMYKEnabledKey"/>
<vectornator:setting key="WDDynamicGuides" value="false"/>
<vectornator:setting value="false" key="WDSnapToEdges"/>
<vectornator:setting key="WDSnapToPoints" value="false"/>
<vectornator:setting key="VNDimensionsVisible" value="true"/>
<vectornator:setting key="UndoHistoryDisabled" value="true"/>
<vectornator:setting key="WDIsolateActiveLayer" value="false"/>
<vectornator:setting value="false" key="WDSnapToGrid"/>
<vectornator:setting value="true" key="WDGuidesVisible"/>
<vectornator:setting key="WDDisplayWhiteBackground" value="false"/>
<vectornator:setting key="VNSnapToGuides" value="true"/>
<vectornator:setting value="false" key="WDOutlineMode"/>
<vectornator:setting key="WDUnits" value="Points"/>
<vectornator:setting value="true" key="WDRulersVisible"/>
<vectornator:setting value="false" key="IsTimeLapseWatermarkDisabled"/>
</metadata>
<defs/>
<g id="Katman 1" vectornator:layerName="Katman 1">
<path fill="#e99e05" d="M35.574+11.2235L128.163+11.2235C134.191+11.2235+139.077+16.11+139.077+22.1378L139.077+39.5569C139.077+45.5847+134.191+50.4713+128.163+50.4713L35.574+50.4713C29.5461+50.4713+24.6596+45.5847+24.6596+39.5569L24.6596+22.1378C24.6596+16.11+29.5461+11.2235+35.574+11.2235Z" opacity="1"/>
<path opacity="1" fill="#e99e05" d="M33.4358+8.65947L126.025+8.65947C132.053+8.65947+136.939+13.546+136.939+19.5738L136.939+36.9929C136.939+43.0207+132.053+47.9072+126.025+47.9072L33.4358+47.9072C27.408+47.9072+22.5215+43.0207+22.5215+36.9929L22.5215+19.5738C22.5215+13.546+27.408+8.65947+33.4358+8.65947Z"/>
<path d="M35.5051+11.1418L128.094+11.1418C134.122+11.1418+139.009+16.0283+139.009+22.0561L139.009+39.4752C139.009+45.503+134.122+50.3895+128.094+50.3895L35.5051+50.3895C29.4773+50.3895+24.5908+45.503+24.5908+39.4752L24.5908+22.0561C24.5908+16.0283+29.4773+11.1418+35.5051+11.1418Z" opacity="1" fill="#e99e05"/>
<path fill="#e99e05" opacity="1" d="M35.4363+11.06L128.025+11.06C134.053+11.06+138.94+15.9465+138.94+21.9744L138.94+39.3934C138.94+45.4213+134.053+50.3078+128.025+50.3078L35.4363+50.3078C29.4085+50.3078+24.5219+45.4213+24.5219+39.3934L24.5219+21.9744C24.5219+15.9465+29.4085+11.06+35.4363+11.06Z"/>
<path fill="#e99e05" opacity="1" d="M35.3675+10.974L127.957+10.974C133.984+10.974+138.871+15.8605+138.871+21.8883L138.871+39.3074C138.871+45.3352+133.984+50.2217+127.957+50.2217L35.3675+50.2217C29.3396+50.2217+24.4531+45.3352+24.4531+39.3074L24.4531+21.8883C24.4531+15.8605+29.3396+10.974+35.3675+10.974Z"/>
<path d="M35.2986+10.8922L127.888+10.8922C133.916+10.8922+138.802+15.7788+138.802+21.8066L138.802+39.2257C138.802+45.2535+133.916+50.14+127.888+50.14L35.2986+50.14C29.2708+50.14+24.3843+45.2535+24.3843+39.2257L24.3843+21.8066C24.3843+15.7788+29.2708+10.8922+35.2986+10.8922Z" opacity="1" fill="#e99e05"/>
<path opacity="1" d="M35.2298+10.8105L127.819+10.8105C133.847+10.8105+138.733+15.697+138.733+21.7248L138.733+39.1439C138.733+45.1717+133.847+50.0583+127.819+50.0583L35.2298+50.0583C29.202+50.0583+24.3154+45.1717+24.3154+39.1439L24.3154+21.7248C24.3154+15.697+29.202+10.8105+35.2298+10.8105Z" fill="#e99e05"/>
<path d="M35.161+10.7288L127.75+10.7288C133.778+10.7288+138.664+15.6153+138.664+21.6431L138.664+39.0622C138.664+45.09+133.778+49.9765+127.75+49.9765L35.161+49.9765C29.1331+49.9765+24.2466+45.09+24.2466+39.0622L24.2466+21.6431C24.2466+15.6153+29.1331+10.7288+35.161+10.7288Z" fill="#e99e05" opacity="1"/>
<path fill="#e99e05" d="M35.0921+10.647L127.681+10.647C133.709+10.647+138.596+15.5335+138.596+21.5614L138.596+38.9804C138.596+45.0083+133.709+49.8948+127.681+49.8948L35.0921+49.8948C29.0643+49.8948+24.1778+45.0083+24.1778+38.9804L24.1778+21.5614C24.1778+15.5335+29.0643+10.647+35.0921+10.647Z" opacity="1"/>
<path fill="#e99e05" d="M35.0233+10.561L127.612+10.561C133.64+10.561+138.527+15.4475+138.527+21.4753L138.527+38.8944C138.527+44.9222+133.64+49.8087+127.612+49.8087L35.0233+49.8087C28.9955+49.8087+24.109+44.9222+24.1089+38.8944L24.1089+21.4753C24.1089+15.4475+28.9955+10.561+35.0233+10.561Z" opacity="1"/>
<path opacity="1" d="M34.9545+10.4792L127.544+10.4792C133.571+10.4792+138.458+15.3658+138.458+21.3936L138.458+38.8127C138.458+44.8405+133.571+49.727+127.544+49.727L34.9545+49.727C28.9266+49.727+24.0401+44.8405+24.0401+38.8127L24.0401+21.3936C24.0401+15.3658+28.9266+10.4792+34.9545+10.4792Z" fill="#e99e05"/>
<path opacity="1" fill="#e99e05" d="M34.8856+10.3975L127.475+10.3975C133.503+10.3975+138.389+15.284+138.389+21.3118L138.389+38.7309C138.389+44.7587+133.503+49.6453+127.475+49.6453L34.8856+49.6453C28.8578+49.6453+23.9713+44.7587+23.9713+38.7309L23.9713+21.3118C23.9713+15.284+28.8578+10.3975+34.8856+10.3975Z"/>
<path d="M34.8168+10.3158L127.406+10.3158C133.434+10.3158+138.32+15.2023+138.32+21.2301L138.32+38.6492C138.32+44.677+133.434+49.5635+127.406+49.5635L34.8168+49.5635C28.789+49.5635+23.9025+44.677+23.9025+38.6492L23.9025+21.2301C23.9024+15.2023+28.789+10.3158+34.8168+10.3158Z" opacity="1" fill="#e99e05"/>
<path opacity="1" fill="#e99e05" d="M34.748+10.2297L127.337+10.2297C133.365+10.2297+138.251+15.1162+138.251+21.1441L138.251+38.5631C138.251+44.591+133.365+49.4775+127.337+49.4775L34.748+49.4775C28.7201+49.4775+23.8336+44.591+23.8336+38.5631L23.8336+21.1441C23.8336+15.1162+28.7201+10.2297+34.748+10.2297Z"/>
<path fill="#e99e05" opacity="1" d="M34.6791+10.148L127.268+10.148C133.296+10.148+138.183+15.0345+138.183+21.0623L138.183+38.4814C138.183+44.5092+133.296+49.3957+127.268+49.3957L34.6791+49.3957C28.6513+49.3957+23.7648+44.5092+23.7648+38.4814L23.7648+21.0623C23.7648+15.0345+28.6513+10.148+34.6791+10.148Z"/>
<path d="M34.6103+10.0662L127.199+10.0662C133.227+10.0662+138.114+14.9528+138.114+20.9806L138.114+38.3997C138.114+44.4275+133.227+49.314+127.199+49.314L34.6103+49.314C28.5825+49.314+23.696+44.4275+23.696+38.3997L23.696+20.9806C23.696+14.9528+28.5825+10.0662+34.6103+10.0662Z" opacity="1" fill="#e99e05"/>
<path fill="#e99e05" d="M34.5415+9.9845L127.131+9.9845C133.158+9.9845+138.045+14.871+138.045+20.8988L138.045+38.3179C138.045+44.3457+133.158+49.2323+127.131+49.2323L34.5415+49.2323C28.5136+49.2323+23.6271+44.3457+23.6271+38.3179L23.6271+20.8988C23.6271+14.871+28.5136+9.9845+34.5415+9.9845Z" opacity="1"/>
<path opacity="1" fill="#e99e05" d="M34.4726+9.89846L127.062+9.89846C133.09+9.89846+137.976+14.785+137.976+20.8128L137.976+38.2319C137.976+44.2597+133.09+49.1462+127.062+49.1462L34.4726+49.1462C28.4448+49.1462+23.5583+44.2597+23.5583+38.2319L23.5583+20.8128C23.5583+14.785+28.4448+9.89846+34.4726+9.89846Z"/>
<path d="M34.3995+9.81672L126.989+9.81672C133.016+9.81672+137.903+14.7032+137.903+20.7311L137.903+38.1501C137.903+44.178+133.016+49.0645+126.989+49.0645L34.3995+49.0645C28.3717+49.0645+23.4851+44.178+23.4851+38.1501L23.4851+20.7311C23.4851+14.7032+28.3717+9.81672+34.3995+9.81672Z" opacity="1" fill="#e99e05"/>
<path d="M34.3307+9.73498L126.92+9.73498C132.948+9.73498+137.834+14.6215+137.834+20.6493L137.834+38.0684C137.834+44.0962+132.948+48.9827+126.92+48.9827L34.3307+48.9827C28.3028+48.9827+23.4163+44.0962+23.4163+38.0684L23.4163+20.6493C23.4163+14.6215+28.3028+9.73498+34.3307+9.73498Z" opacity="1" fill="#e99e05"/>
<path d="M34.2618+9.65324L126.851+9.65324C132.879+9.65324+137.765+14.5398+137.765+20.5676L137.765+37.9867C137.765+44.0145+132.879+48.901+126.851+48.901L34.2618+48.901C28.234+48.901+23.3475+44.0145+23.3475+37.9867L23.3475+20.5676C23.3475+14.5398+28.234+9.65324+34.2618+9.65324Z" opacity="1" fill="#e99e05"/>
<path fill="#e99e05" d="M34.193+9.5672L126.782+9.5672C132.81+9.5672+137.696+14.4537+137.696+20.4815L137.696+37.9006C137.696+43.9284+132.81+48.815+126.782+48.815L34.193+48.815C28.1652+48.815+23.2786+43.9284+23.2787+37.9006L23.2787+20.4815C23.2787+14.4537+28.1652+9.5672+34.193+9.5672Z" opacity="1"/>
<path d="M34.1242+9.48546L126.713+9.48546C132.741+9.48546+137.628+14.372+137.628+20.3998L137.628+37.8189C137.628+43.8467+132.741+48.7332+126.713+48.7332L34.1242+48.7332C28.0963+48.7332+23.2098+43.8467+23.2098+37.8189L23.2098+20.3998C23.2098+14.372+28.0963+9.48546+34.1242+9.48546Z" fill="#e99e05" opacity="1"/>
<path fill="#e99e05" d="M34.0553+9.40372L126.644+9.40372C132.672+9.40373+137.559+14.2902+137.559+20.3181L137.559+37.7371C137.559+43.765+132.672+48.6515+126.644+48.6515L34.0553+48.6515C28.0275+48.6515+23.141+43.765+23.141+37.7371L23.141+20.3181C23.141+14.2902+28.0275+9.40372+34.0553+9.40372Z" opacity="1"/>
<path fill="#e99e05" opacity="1" d="M33.9865+9.32198L126.576+9.32198C132.603+9.32199+137.49+14.2085+137.49+20.2363L137.49+37.6554C137.49+43.6832+132.603+48.5697+126.576+48.5697L33.9865+48.5697C27.9587+48.5697+23.0722+43.6832+23.0722+37.6554L23.0722+20.2363C23.0722+14.2085+27.9587+9.32198+33.9865+9.32198Z"/>
<path opacity="1" fill="#e99e05" d="M33.9177+9.24024L126.507+9.24024C132.535+9.24025+137.421+14.1268+137.421+20.1546L137.421+37.5737C137.421+43.6015+132.535+48.488+126.507+48.488L33.9177+48.488C27.8898+48.488+23.0033+43.6015+23.0033+37.5737L23.0033+20.1546C23.0033+14.1268+27.8898+9.24024+33.9177+9.24024Z"/>
<path fill="#e99e05" opacity="1" d="M33.8488+9.1542L126.438+9.1542C132.466+9.15421+137.352+14.0407+137.352+20.0685L137.352+37.4876C137.352+43.5154+132.466+48.402+126.438+48.402L33.8488+48.402C27.821+48.402+22.9345+43.5154+22.9345+37.4876L22.9345+20.0685C22.9345+14.0407+27.821+9.1542+33.8488+9.1542Z"/>
<path d="M33.78+9.07246L126.369+9.07246C132.397+9.07247+137.283+13.959+137.283+19.9868L137.283+37.4059C137.283+43.4337+132.397+48.3202+126.369+48.3202L33.78+48.3202C27.7522+48.3202+22.8657+43.4337+22.8657+37.4059L22.8657+19.9868C22.8657+13.959+27.7522+9.07246+33.78+9.07246Z" opacity="1" fill="#e99e05"/>
<path d="M33.7112+8.99072L126.3+8.99072C132.328+8.99073+137.215+13.8772+137.215+19.9051L137.215+37.3241C137.215+43.352+132.328+48.2385+126.3+48.2385L33.7112+48.2385C27.6833+48.2385+22.7968+43.352+22.7968+37.3241L22.7968+19.9051C22.7968+13.8772+27.6833+8.99072+33.7112+8.99072Z" fill="#e99e05" opacity="1"/>
<path opacity="1" d="M33.6423+8.90899L126.231+8.90899C132.259+8.90899+137.146+13.7955+137.146+19.8233L137.146+37.2424C137.146+43.2702+132.259+48.1567+126.231+48.1567L33.6423+48.1567C27.6145+48.1567+22.728+43.2702+22.728+37.2424L22.728+19.8233C22.728+13.7955+27.6145+8.90899+33.6423+8.90899Z" fill="#e99e05"/>
<path fill="#e99e05" opacity="1" d="M33.5735+8.82294L126.163+8.82294C132.19+8.82295+137.077+13.7095+137.077+19.7373L137.077+37.1564C137.077+43.1842+132.19+48.0707+126.163+48.0707L33.5735+48.0707C27.5457+48.0707+22.6592+43.1842+22.6592+37.1564L22.6592+19.7373C22.6592+13.7095+27.5457+8.82294+33.5735+8.82294Z"/>
<path fill="#e99e05" d="M33.5047+8.74121L126.094+8.74121C132.122+8.74121+137.008+13.6277+137.008+19.6556L137.008+37.0746C137.008+43.1024+132.122+47.989+126.094+47.989L33.5047+47.989C27.4768+47.989+22.5903+43.1024+22.5903+37.0746L22.5903+19.6556C22.5903+13.6277+27.4768+8.74121+33.5047+8.74121Z" opacity="1"/>
<path opacity="1" fill="#e99e05" d="M33.367+8.57773L125.956+8.57773C131.984+8.57773+136.87+13.4642+136.87+19.4921L136.87+36.9111C136.87+42.939+131.984+47.8255+125.956+47.8255L33.367+47.8255C27.3392+47.8255+22.4527+42.939+22.4527+36.9111L22.4527+19.4921C22.4527+13.4642+27.3392+8.57773+33.367+8.57773Z"/>
<path d="M33.2982+8.49169L125.887+8.49169C131.915+8.49169+136.802+13.3782+136.802+19.406L136.802+36.8251C136.802+42.8529+131.915+47.7394+125.887+47.7394L33.2982+47.7394C27.2703+47.7394+22.3838+42.8529+22.3838+36.8251L22.3838+19.406C22.3838+13.3782+27.2703+8.49169+33.2982+8.49169Z" opacity="1" fill="#e99e05"/>
<path opacity="1" fill="#e99e05" d="M33.2293+8.40995L125.818+8.40995C131.846+8.40995+136.733+13.2965+136.733+19.3243L136.733+36.7434C136.733+42.7712+131.846+47.6577+125.818+47.6577L33.2293+47.6577C27.2015+47.6577+22.315+42.7712+22.315+36.7434L22.315+19.3243C22.315+13.2965+27.2015+8.40995+33.2293+8.40995Z"/>
<path opacity="1" fill="#e99e05" d="M33.1605+8.32821L125.75+8.32821C131.777+8.32821+136.664+13.2147+136.664+19.2426L136.664+36.6616C136.664+42.6895+131.777+47.576+125.75+47.576L33.1605+47.576C27.1327+47.576+22.2462+42.6895+22.2462+36.6616L22.2462+19.2426C22.2462+13.2147+27.1327+8.32821+33.1605+8.32821Z"/>
<path opacity="1" d="M70.4852+50.4713L163.074+50.4713C169.102+50.4713+173.989+55.3578+173.989+61.3856L173.989+78.8047C173.989+84.8325+169.102+89.719+163.074+89.719L70.4852+89.719C64.4574+89.719+59.5709+84.8325+59.5709+78.8047L59.5709+61.3856C59.5709+55.3578+64.4574+50.4713+70.4852+50.4713Z" fill="#333333"/>
<path fill="#303030" d="M70.3648+50.3293L162.954+50.3293C168.982+50.3293+173.868+55.2158+173.868+61.2436L173.868+78.6627C173.868+84.6905+168.982+89.5771+162.954+89.5771L70.3648+89.5771C64.337+89.5771+59.4504+84.6905+59.4504+78.6627L59.4504+61.2436C59.4504+55.2158+64.337+50.3293+70.3648+50.3293Z" opacity="1"/>
<path opacity="1" fill="#2e2e2e" d="M70.2443+50.183L162.833+50.183C168.861+50.183+173.748+55.0695+173.748+61.0974L173.748+78.5164C173.748+84.5443+168.861+89.4308+162.833+89.4308L70.2443+89.4308C64.2165+89.4308+59.33+84.5443+59.33+78.5164L59.33+61.0974C59.33+55.0695+64.2165+50.183+70.2443+50.183Z"/>
<path opacity="1" fill="#2b2b2b" d="M70.1239+50.0368L162.713+50.0368C168.741+50.0368+173.627+54.9233+173.627+60.9511L173.627+78.3702C173.627+84.398+168.741+89.2845+162.713+89.2845L70.1239+89.2845C64.096+89.2845+59.2095+84.398+59.2095+78.3702L59.2095+60.9511C59.2095+54.9233+64.096+50.0368+70.1239+50.0368Z"/>
<path d="M70.0034+49.8948L162.592+49.8948C168.62+49.8948+173.507+54.7813+173.507+60.8091L173.507+78.2282C173.507+84.256+168.62+89.1425+162.592+89.1425L70.0034+89.1425C63.9756+89.1425+59.0891+84.256+59.0891+78.2282L59.0891+60.8091C59.0891+54.7813+63.9756+49.8948+70.0034+49.8948Z" opacity="1" fill="#292929"/>
<path opacity="1" d="M69.883+49.7485L162.472+49.7485C168.5+49.7485+173.386+54.635+173.386+60.6629L173.386+78.0819C173.386+84.1098+168.5+88.9963+162.472+88.9963L69.883+88.9963C63.8551+88.9963+58.9686+84.1098+58.9686+78.0819L58.9686+60.6629C58.9686+54.635+63.8551+49.7485+69.883+49.7485Z" fill="#262626"/>
<path fill="#242424" opacity="1" d="M69.7625+49.6022L162.352+49.6022C168.379+49.6022+173.266+54.4888+173.266+60.5166L173.266+77.9357C173.266+83.9635+168.379+88.85+162.352+88.85L69.7625+88.85C63.7347+88.85+58.8481+83.9635+58.8481+77.9357L58.8481+60.5166C58.8481+54.4888+63.7347+49.6022+69.7625+49.6022Z"/>
<path fill="#212121" d="M69.642+49.4603L162.231+49.4603C168.259+49.4603+173.145+54.3468+173.145+60.3746L173.145+77.7937C173.145+83.8215+168.259+88.708+162.231+88.708L69.642+88.708C63.6142+88.708+58.7277+83.8215+58.7277+77.7937L58.7277+60.3746C58.7277+54.3468+63.6142+49.4603+69.642+49.4603Z" opacity="1"/>
<path fill="#1f1f1f" d="M69.5216+49.314L162.111+49.314C168.138+49.314+173.025+54.2005+173.025+60.2284L173.025+77.6474C173.025+83.6752+168.138+88.5618+162.111+88.5618L69.5216+88.5618C63.4937+88.5618+58.6072+83.6752+58.6072+77.6474L58.6072+60.2284C58.6072+54.2005+63.4937+49.314+69.5216+49.314Z" opacity="1"/>
<path opacity="1" d="M69.4011+49.1677L161.99+49.1677C168.018+49.1677+172.905+54.0543+172.905+60.0821L172.905+77.5012C172.905+83.529+168.018+88.4155+161.99+88.4155L69.4011+88.4155C63.3733+88.4155+58.4868+83.529+58.4868+77.5012L58.4868+60.0821C58.4868+54.0543+63.3733+49.1677+69.4011+49.1677Z" fill="#1c1c1c"/>
<path fill="#1a1a1a" opacity="1" d="M69.2807+49.0258L161.87+49.0258C167.898+49.0258+172.784+53.9123+172.784+59.9401L172.784+77.3592C172.784+83.387+167.898+88.2735+161.87+88.2735L69.2807+88.2735C63.2528+88.2735+58.3663+83.387+58.3663+77.3592L58.3663+59.9401C58.3663+53.9123+63.2528+49.0258+69.2807+49.0258Z"/>
<path opacity="1" d="M69.1602+48.8795L161.749+48.8795C167.777+48.8795+172.664+53.766+172.664+59.7938L172.664+77.2129C172.664+83.2407+167.777+88.1273+161.749+88.1273L69.1602+88.1273C63.1324+88.1273+58.2459+83.2407+58.2459+77.2129L58.2459+59.7938C58.2459+53.766+63.1324+48.8795+69.1602+48.8795Z" fill="#171717"/>
<path opacity="1" fill="#141414" d="M69.0397+48.7332L161.629+48.7332C167.657+48.7332+172.543+53.6197+172.543+59.6476L172.543+77.0666C172.543+83.0945+167.657+87.981+161.629+87.981L69.0397+87.981C63.0119+87.981+58.1254+83.0945+58.1254+77.0666L58.1254+59.6476C58.1254+53.6197+63.0119+48.7332+69.0397+48.7332Z"/>
<path opacity="1" d="M68.915+48.5913L161.504+48.5913C167.532+48.5913+172.418+53.4778+172.418+59.5056L172.418+76.9247C172.418+82.9525+167.532+87.839+161.504+87.839L68.915+87.839C62.8872+87.839+58.0006+82.9525+58.0006+76.9247L58.0006+59.5056C58.0006+53.4778+62.8872+48.5913+68.915+48.5913Z" fill="#121212"/>
<path fill="#0f0f0f" d="M68.7945+48.445L161.384+48.445C167.411+48.445+172.298+53.3315+172.298+59.3593L172.298+76.7784C172.298+82.8062+167.411+87.6928+161.384+87.6928L68.7945+87.6928C62.7667+87.6928+57.8802+82.8062+57.8802+76.7784L57.8802+59.3593C57.8802+53.3315+62.7667+48.445+68.7945+48.445Z" opacity="1"/>
<path d="M68.6741+48.303L161.263+48.303C167.291+48.303+172.178+53.1895+172.178+59.2174L172.178+76.6364C172.178+82.6643+167.291+87.5508+161.263+87.5508L68.6741+87.5508C62.6462+87.5508+57.7597+82.6643+57.7597+76.6364L57.7597+59.2174C57.7597+53.1895+62.6462+48.303+68.6741+48.303Z" opacity="1" fill="#0d0d0d"/>
<path opacity="1" fill="#0a0a0a" d="M68.5536+48.1567L161.143+48.1567C167.171+48.1568+172.057+53.0433+172.057+59.0711L172.057+76.4902C172.057+82.518+167.171+87.4045+161.143+87.4045L68.5536+87.4045C62.5258+87.4045+57.6393+82.518+57.6393+76.4902L57.6393+59.0711C57.6393+53.0433+62.5258+48.1567+68.5536+48.1567Z"/>
<path d="M68.4332+48.0105L161.022+48.0105C167.05+48.0105+171.937+52.897+171.937+58.9248L171.937+76.3439C171.937+82.3717+167.05+87.2582+161.022+87.2582L68.4332+87.2582C62.4053+87.2582+57.5188+82.3717+57.5188+76.3439L57.5188+58.9248C57.5188+52.897+62.4053+48.0105+68.4332+48.0105Z" fill="#080808" opacity="1"/>
<path opacity="1" fill="#050505" d="M68.3127+47.8685L160.902+47.8685C166.93+47.8685+171.816+52.755+171.816+58.7829L171.816+76.2019C171.816+82.2298+166.93+87.1163+160.902+87.1163L68.3127+87.1163C62.2849+87.1163+57.3983+82.2298+57.3983+76.2019L57.3983+58.7829C57.3983+52.755+62.2849+47.8685+68.3127+47.8685Z"/>
<path d="M68.1922+47.7222L160.781+47.7222C166.809+47.7222+171.696+52.6088+171.696+58.6366L171.696+76.0557C171.696+82.0835+166.809+86.97+160.781+86.97L68.1922+86.97C62.1644+86.97+57.2779+82.0835+57.2779+76.0557L57.2779+58.6366C57.2779+52.6088+62.1644+47.7222+68.1922+47.7222Z" opacity="1" fill="#030303"/>
<path fill="#000000" d="M68.0718+47.576L160.661+47.576C166.689+47.576+171.575+52.4625+171.575+58.4903L171.575+75.9094C171.575+81.9372+166.689+86.8237+160.661+86.8237L68.0718+86.8237C62.044+86.8237+57.1574+81.9372+57.1574+75.9094L57.1574+58.4903C57.1574+52.4625+62.044+47.576+68.0718+47.576Z" opacity="1"/>
<path d="M68.0718+47.576L160.661+47.576C166.689+47.576+171.575+52.4625+171.575+58.4903L171.575+75.9094C171.575+81.9372+166.689+86.8237+160.661+86.8237L68.0718+86.8237C62.044+86.8237+57.1574+81.9372+57.1574+75.9094L57.1574+58.4903C57.1574+52.4625+62.044+47.576+68.0718+47.576Z" fill="#231f20" opacity="1"/>
<path fill="#e99e05" d="M33.1605+8.32821L125.75+8.32821C131.777+8.32821+136.664+13.2147+136.664+19.2426L136.664+36.6616C136.664+42.6895+131.777+47.576+125.75+47.576L33.1605+47.576C27.1327+47.576+22.2462+42.6895+22.2462+36.6616L22.2462+19.2426C22.2462+13.2147+27.1327+8.32821+33.1605+8.32821Z" opacity="1"/>
<path fill="#e99e05" d="M63.5675+78.9122L63.5675+54.1151L68.4332+54.1151L78.5817+70.6738L78.5817+54.1151L83.2323+54.1151L83.2323+78.9122L78.2118+78.9122L68.218+62.7408L68.218+78.9122L63.5675+78.9122Z" opacity="1"/>
<path d="M88.5324+78.9122L88.5324+54.1151L106.915+54.1151L106.915+58.3096L93.5357+58.3096L93.5357+63.8077L105.986+63.8077L105.986+67.985L93.5357+67.985L93.5357+74.7349L107.388+74.7349L107.388+78.9122L88.5324+78.9122Z" opacity="1" fill="#e99e05"/>
<path opacity="1" d="M145.01+70.8416L149.88+70.3683C150.167+72.0031+150.762+73.2048+151.665+73.9735C152.695+74.7837+153.984+75.1919+155.292+75.1221C156.907+75.1221+158.123+74.7808+158.94+74.0982C159.698+73.5345+160.151+72.6507+160.166+71.7063C160.18+71.1613+159.997+70.6297+159.65+70.2091C159.152+69.7014+158.531+69.3309+157.847+69.1336C157.274+68.9329+155.937+68.5729+153.838+68.0538C151.153+67.3884+149.27+66.571+148.189+65.6016C145.69+63.4693+145.172+59.8088+146.98+57.0663C147.736+55.936+148.816+55.0603+150.078+54.5539C151.63+53.9432+153.289+53.6506+154.956+53.6935C158.065+53.6935+160.407+54.3761+161.982+55.7413C163.561+57.1148+164.466+59.1073+164.46+61.2006L159.456+61.4243C159.241+60.148+158.781+59.2317+158.075+58.6753C157.37+58.116+156.316+57.8149+154.905+57.8149C153.494+57.8149+152.323+58.116+151.489+58.714C150.98+59.0575+150.68+59.6359+150.693+60.2499C150.695+60.8399+150.969+61.396+151.437+61.7556C152.068+62.2862+153.601+62.8383+156.036+63.4119C157.901+63.7925+159.715+64.3918+161.44+65.1972C162.566+65.7719+163.514+66.6437+164.18+67.7183C165.582+70.2136+165.506+73.2758+163.982+75.6986C163.182+76.9467+162.012+77.9137+160.635+78.4648C158.913+79.1158+157.08+79.4228+155.24+79.3682C152.106+79.3682+149.698+78.6441+148.017+77.1957C146.336+75.7473+145.334+73.6293+145.01+70.8416Z" fill="#e99e05"/>
<path opacity="1" d="M129.996+63.8851C130.125+63.756+130.129+63.67+129.996+63.5409C128.903+62.4511+127.813+61.3612+126.726+60.2714C126.61+60.1552+126.524+60.1466+126.404+60.2714L123.117+63.5624C123.074+63.6055+123.018+63.6485+123.022+63.7216C123.026+63.7948+123.095+63.8464+123.151+63.898C124.227+64.9778+125.302+66.049+126.378+67.1375C126.515+67.2708+126.606+67.2794+126.743+67.1375C127.823+66.0447+128.912+64.9649+129.996+63.8851Z" fill="#e99e05"/>
<path fill="#e99e05" d="M120.733+73.1388L123.796+70.0801C124.042+69.8306+124.042+69.8306+123.796+69.5767L118.204+63.984C117.937+63.713+117.937+63.713+118.204+63.4463C120.077+61.5763+121.951+59.7121+123.827+57.8536C124.003+57.6772+124.003+57.574+123.827+57.3976C122.803+56.378+121.792+55.3498+120.772+54.3259C120.523+54.0764+120.523+54.0764+120.277+54.3259L111.114+63.4893C110.864+63.7345+110.864+63.7388+111.114+63.9884L117.829+70.7039L120.299+73.169C120.35+73.2444+120.424+73.3017+120.51+73.3324C120.609+73.298+120.665+73.2077+120.733+73.1388Z" opacity="1"/>
<path opacity="1" fill="#e99e05" d="M129.363+57.3417C129.101+57.6041+129.101+57.6041+129.363+57.8622L134.978+63.4764C135.21+63.7087+135.214+63.713+134.978+63.941L132.736+66.1824C131.589+67.3296+130.442+68.4768+129.295+69.6241C129.17+69.7488+129.071+69.8521+129.247+70.0242C130.318+71.0868+131.398+72.1537+132.448+73.2206C132.487+73.2749+132.546+73.3119+132.611+73.3238C132.706+73.3238+132.762+73.2292+132.822+73.169C135.894+70.0973+138.967+67.0271+142.042+63.9582C142.214+63.7862+142.231+63.6829+142.042+63.5022C138.967+60.4334+135.897+57.3617+132.831+54.2872C132.659+54.1151+132.56+54.1323+132.401+54.2872C131.407+55.3068+130.383+56.3393+129.363+57.3417Z"/>
<path d="M126.735+79.2607L129.948+76.0471C130.056+75.9395+130.077+75.8578+129.948+75.7416L126.718+72.5108C126.597+72.386+126.507+72.3989+126.391+72.5108C125.324+73.5863+124.254+74.6589+123.181+75.7287C123.121+75.7684+123.081+75.8331+123.074+75.9051C123.102+75.9475+123.134+75.9878+123.168+76.0255L126.399+79.2607C126.511+79.3898+126.619+79.3768+126.735+79.2607Z" fill="#e99e05" opacity="1"/>
<path fill="#231f20" d="M41.4979+13.7488L52.2144+13.7488C53.7963+13.7167+55.3783+13.8059+56.9466+14.0155C57.948+14.1766+58.9022+14.5539+59.743+15.1212C60.5886+15.7051+61.2927+16.471+61.8037+17.3625C62.3556+18.3146+62.6396+19.3983+62.6254+20.4988C62.6279+23.0116+61.1513+25.2906+58.8568+26.3152C60.3441+26.6934+61.6674+27.5468+62.6254+28.7458C63.5076+29.9052+63.9716+31.3289+63.9418+32.7855C63.9355+34.0222+63.6409+35.2403+63.0814+36.3433C62.5579+37.4487+61.7577+38.4001+60.7583+39.1052C59.6775+39.8308+58.429+40.2677+57.1316+40.3743C56.2282+40.4747+54.0513+40.5364+50.6011+40.5593L41.4979+40.5593L41.4979+13.7488ZM46.9228+18.1971L46.9228+24.3964L50.472+24.3964C52.58+24.3964+53.8907+24.3649+54.4041+24.3018C55.221+24.2418+55.9925+23.9031+56.5896+23.3424C57.1318+22.7833+57.4197+22.0254+57.3854+21.2473C57.4184+20.5121+57.1725+19.7915+56.6971+19.2296C56.1624+18.6721+55.4376+18.3358+54.6665+18.2875C54.1331+18.2273+52.5886+18.1972+50.0418+18.1972L46.9228+18.1971ZM46.9228+28.8577L46.9228+36.0249L51.9218+36.0249C53.1617+36.063+54.4027+36.0084+55.6345+35.8614C56.3932+35.74+57.0872+35.3618+57.6005+34.7902C58.1291+34.1532+58.3993+33.3411+58.3577+32.5144C58.3812+31.7875+58.1766+31.0715+57.7726+30.4666C57.358+29.8843+56.7642+29.4537+56.0819+29.2406C55.3448+28.9824+53.7445+28.8548+51.2808+28.8577L46.9228+28.8577Z" opacity="1"/>
<path d="M67.1425+31.8175L72.4083+31.3055C72.7266+33.0723+73.3691+34.3715+74.3356+35.2032C75.3021+36.035+76.6099+36.4494+78.2591+36.4465C79.9799+36.4465+81.3178+36.0765+82.1998+35.3409C83.0179+34.7325+83.5074+33.779+83.5248+32.7596C83.5407+32.1712+83.3436+31.5968+82.9698+31.1421C82.4294+30.5957+81.7587+30.196+81.021+29.9805C80.3872+29.7597+78.9431+29.3696+76.6888+28.8103C73.7864+28.0905+71.75+27.2071+70.5799+26.1603C68.9947+24.8193+68.0895+22.8417+68.1105+20.7655C68.1092+19.4009+68.5135+18.0667+69.2721+16.9323C70.0884+15.7106+71.2551+14.7643+72.6191+14.2177C74.2967+13.5496+76.0925+13.229+77.8977+13.2756C81.2619+13.2756+83.7944+14.0141+85.4952+15.4911C87.1959+16.9682+88.0893+18.9357+88.1753+21.3936L82.7633+21.6345C82.531+20.2578+82.0363+19.2641+81.2705+18.6618C80.5048+18.0595+79.369+17.7583+77.8289+17.7583C76.2887+17.7583+75.0282+18.081+74.1377+18.7263C73.586+19.0984+73.2617+19.7259+73.2773+20.3912C73.2789+21.0287+73.5761+21.6293+74.0818+22.0174C74.7644+22.591+76.4221+23.189+79.055+23.8113C81.6878+24.4337+83.6352+25.0762+84.8972+25.7387C86.1141+26.3606+87.1387+27.3019+87.8613+28.4619C89.3702+31.1526+89.2894+34.4525+87.6505+37.066C86.789+38.4251+85.5217+39.4787+84.0281+40.0775C82.1668+40.7835+80.1844+41.1154+78.1945+41.054C74.8074+41.054+72.2046+40.2711+70.3863+38.7051C68.568+37.1392+67.4867+34.8433+67.1425+31.8175Z" opacity="1" fill="#231f20"/>
<path d="M110.658+30.686L115.906+32.3509C115.101+35.2764+113.763+37.4489+111.893+38.8686C110.023+40.2883+107.648+41.0053+104.768+41.0196C101.212+41.0196+98.2866+39.8036+95.9922+37.3715C93.6978+34.9394+92.5505+31.6139+92.5505+27.395C92.5505+22.9352+93.6978+19.4706+95.9922+17.0012C98.2866+14.5318+101.317+13.2971+105.082+13.2971C108.361+13.2971+111.024+14.2665+113.071+16.2053C114.293+17.3525+115.208+18.9988+115.816+21.1441L110.46+22.4347C109.945+19.7452+107.543+17.835+104.807+17.939C102.952+17.8812+101.171+18.6732+99.9716+20.0901C98.7326+21.5241+98.1131+23.8343+98.1131+27.0207C98.1131+30.4107+98.7226+32.8242+99.9415+34.2611C101.11+35.6745+102.866+36.4685+104.7+36.4121C106.081+36.4361+107.42+35.9313+108.442+35.001C109.469+34.0861+110.208+32.6478+110.658+30.686Z" fill="#231f20" opacity="1"/>
</g>
</svg>
