<?xml version="1.0" encoding="UTF-8" standalone="no"?> <!-- Created with Vectornator for iOS (http://vectornator.io/) --><!DOCTYPE svg PUBLIC "-//W3C//DTD SVG 1.1//EN" "http://www.w3.org/Graphics/SVG/1.1/DTD/svg11.dtd">
<svg width="100%" version="1.1" xml:space="preserve" xmlns:vectornator="http://vectornator.io" xmlns:xlink="http://www.w3.org/1999/xlink" style="fill-rule:nonzero;clip-rule:evenodd;stroke-linecap:round;stroke-linejoin:round;" xmlns="http://www.w3.org/2000/svg" viewBox="0 0 200 105" height="100%">
<metadata>
<vectornator:setting key="WDSnapToPoints" value="false"/>
<vectornator:setting value="false" key="WDDisplayWhiteBackground"/>
<vectornator:setting key="UndoHistoryDisabled" value="true"/>
<vectornator:setting value="Points" key="WDUnits"/>
<vectornator:setting value="false" key="WDSnapToGrid"/>
<vectornator:setting key="WDSnapToEdges" value="false"/>
<vectornator:setting value="true" key="WDGuidesVisible"/>
<vectornator:setting key="WDOutlineMode" value="false"/>
<vectornator:setting key="VNSnapToGuides" value="true"/>
<vectornator:setting key="VNDimensionsVisible" value="true"/>
<vectornator:setting key="IsTimeLapseWatermarkDisabled" value="false"/>
<vectornator:setting key="WDIsolateActiveLayer" value="false"/>
<vectornator:setting value="false" key="WDCMYKEnabledKey"/>
<vectornator:setting key="WDDynamicGuides" value="false"/>
<vectornator:setting value="true" key="WDRulersVisible"/>
</metadata>
<defs/>
<g id="Katman 1" vectornator:layerName="Katman 1">
<path opacity="1" fill="#f3bb2d" d="M24.1152+53.1515C24.1152+54.164+24.9062+54.955+25.9187+54.955C26.9312+54.955+27.7222+54.164+27.7222+53.1515C27.7222+52.139+26.9312+51.348+25.9187+51.348C24.9062+51.3796+24.1152+52.1706+24.1152+53.1515M39.2393+51.3796C38.2268+51.3796+37.4358+52.1706+37.4358+53.1831C37.4358+54.1956+38.2268+54.9866+39.2393+54.9866C40.2517+54.9866+41.0427+54.1956+41.0427+53.1831C41.0427+52.1706+40.2517+51.3796+39.2393+51.3796M39.2393+64.9217C38.2268+64.9217+37.4358+65.7127+37.4358+66.7252C37.4358+67.7377+38.2268+68.5287+39.2393+68.5287C40.2517+68.5287+41.0427+67.7377+41.0427+66.7252C41.0427+65.7127+40.2517+64.9217+39.2393+64.9217"/>
<path opacity="1" d="M43.0677+36.4771C41.2642+34.2306+38.0369+34.1357+36.1385+35.9075L35.917+36.129L35.4741+36.4771C33.6706+37.9325+30.9811+37.8059+29.3042+36.129L29.3042+36.0025C28.7347+35.4329+27.9753+34.99+27.1843+34.7685C27.0577+34.7685+26.8363+34.6419+26.7413+34.6419L24.9378+34.6419C24.8113+34.6419+24.7164+34.6419+24.5898+34.7685L24.3683+34.7685C24.2417+34.7685+24.1468+34.895+24.0203+34.895C24.0203+34.895+23.8937+34.895+23.8937+35.0216C23.7671+35.0216+23.6722+35.1482+23.5457+35.1482C23.5457+35.1482+23.4191+35.1482+23.4191+35.2747C23.2925+35.4013+23.1976+35.4013+23.0711+35.4962C23.0711+35.4962+22.9445+35.4962+22.9445+35.6228C22.8179+35.7493+22.723+35.7493+22.5965+35.8443L22.4699+35.9708L22.2484+36.1923L21.8054+36.5403C20.0019+37.9958+17.3125+37.8692+15.7621+36.1923C15.7621+36.1923+15.6356+36.1923+15.6356+36.0657L15.4141+35.8443C14.7497+35.2747+13.9587+34.8318+13.0727+34.7368L11.0477+34.7368C11.0477+34.8634+10.9212+34.8634+10.8263+34.9583L10.7946+34.9583C10.2251+35.1798+9.68721+35.4013+9.21261+35.8443L9.08605+35.9708L8.738+36.3189C8.29504+36.7618+8.07356+37.3313+7.85207+37.7743C7.85207+37.9009+7.72551+37.9958+7.72551+38.1224C7.72551+38.2489+7.59895+38.3438+7.59895+38.5653C7.47239+39.3563+7.47239+40.1473+7.72551+40.9067C7.72551+41.0333+7.85207+41.1282+7.85207+41.2547L7.85207+41.3813C7.85207+41.5079+7.97863+41.6028+7.97863+41.7293C8.1052+41.8559+8.1052+41.9508+8.20012+42.1723C8.4216+42.2989+8.64308+42.5204+8.76964+42.6153L8.99112+42.8368L9.21261+43.0582C10.8895+44.7352+10.8895+47.6461+9.08605+49.4496C8.86456+49.6711+8.51652+50.0191+8.4216+50.2406C8.29504+50.3671+8.29504+50.4621+8.20012+50.6836L8.20012+50.8101C8.07356+50.9367+8.07356+51.0316+7.97863+51.1582L7.97863+51.2847C7.97863+51.4113+7.85207+51.5062+7.85207+51.6328L7.85207+51.7593C7.85207+51.8859+7.85207+51.9808+7.72551+52.1074L7.72551+53.7843C7.72551+53.9109+7.72551+54.0058+7.85207+54.1323L7.85207+54.2589C8.07356+55.0499+8.51652+55.8409+9.18097+56.5054C10.9845+58.3089+10.9845+61.2198+9.18097+62.9916L9.05441+63.1182L8.83292+63.3397L8.83292+63.4662C8.70636+63.5928+8.61144+63.6877+8.61144+63.8143C8.61144+63.8143+8.61144+63.9408+8.48488+63.9408C8.35832+64.0674+8.35832+64.1623+8.2634+64.2889L8.13684+64.4154C8.13684+64.542+8.01028+64.542+8.01028+64.6369C8.01028+64.7318+7.88371+64.7635+7.88371+64.8584C7.88371+64.985+7.88371+64.985+7.75715+65.0799C7.53567+65.5229+7.40911+66.0924+7.40911+66.5353L7.40911+67.4213C7.53567+67.7693+7.53567+68.0857+7.75715+68.3072C7.75715+68.4338+7.88371+68.5287+7.88371+68.5287C7.88371+68.5287+7.88371+68.6552+8.01028+68.6552C8.01028+68.7818+8.13684+68.8767+8.13684+69.0033C8.13684+69.0033+8.13684+69.1298+8.2634+69.1298C8.38996+69.3513+8.48488+69.4779+8.61144+69.5728C8.61144+69.5728+8.61144+69.6994+8.738+69.6994C8.738+69.6994+8.738+69.8259+8.86456+69.8259C8.86456+69.9525+8.99112+69.9525+8.99112+69.9525L9.11769+70.0791C9.24425+70.2056+9.33917+70.2056+9.33917+70.3005L9.46573+70.4271C9.46573+70.4271+9.59229+70.4271+9.59229+70.5537C9.71885+70.6802+9.81377+70.7751+9.94033+70.7751C9.94033+70.7751+10.0669+70.7751+10.0669+70.9017C10.1935+71.0283+10.2884+71.0283+10.4149+71.1232L10.4782+71.1232C10.6048+71.2497+10.6997+71.2497+10.9212+71.2497C11.0477+71.2497+11.2692+71.3763+11.3641+71.3763L11.4907+71.3763C11.6173+71.3763+11.7122+71.3763+11.8388+71.5029L12.8512+71.5029C13.1993+71.5029+13.4208+71.3763+13.7372+71.3763L13.8637+71.3763C13.9903+71.3763+14.0852+71.2497+14.2118+71.2497L14.2751+71.2497C14.4016+71.2497+14.4965+71.1232+14.6231+71.1232L14.7497+71.1232C14.9711+70.9966+15.3192+70.7751+15.5407+70.6802L15.8887+70.3322L16.0153+70.2056C17.8188+68.3072+20.7297+68.3072+22.5015+70.2056C24.5265+72.3255+27.8804+72.2306+29.7788+69.8576C31.1077+68.1806+31.1077+65.7127+29.7788+63.9092C27.9753+61.6627+24.748+61.5678+22.8496+63.3397L22.6281+63.5612L22.1851+63.9092C20.3816+65.3647+17.6922+65.2381+16.0153+63.5612L15.7938+63.3397L15.4457+62.8967C13.9903+61.0932+14.1169+58.4038+15.7938+56.7268C16.8063+55.8409+17.2492+54.6069+17.2492+53.373L17.2492+53.0249C17.2492+51.9175+16.8063+50.7785+15.9204+49.9875C15.9204+49.8609+15.7938+49.8609+15.7938+49.766L15.4457+49.323C13.9903+47.5195+14.1169+44.8301+15.7938+43.1532L15.9204+43.0266L16.0469+42.9C17.8504+41.0016+20.7613+41.0016+22.5332+42.9L22.6597+43.0266L22.7863+43.1532L23.0078+43.3746C23.1343+43.3746+23.1343+43.5012+23.2293+43.5012C23.3242+43.5012+23.3558+43.6278+23.4507+43.6278C23.5457+43.6278+23.5773+43.7543+23.6722+43.7543C23.7671+43.7543+23.7988+43.8809+23.8937+43.8809C23.9886+43.8809+24.0203+44.0074+24.1152+44.0074C24.2101+44.0074+24.2417+44.134+24.3367+44.134C24.4316+44.134+24.4632+44.134+24.5582+44.2606C24.6847+44.2606+24.6847+44.2606+24.7796+44.3871L26.6781+44.3871C26.8046+44.3871+26.8995+44.3871+27.0261+44.2606L27.2476+44.2606C27.3741+44.2606+27.4691+44.134+27.5956+44.134L27.7222+44.134C27.8487+44.134+27.9437+44.0074+28.1651+43.9125C28.6081+43.691+29.0511+43.343+29.3991+43.0266L29.5257+42.9C31.3292+41.0016+34.2401+41.0016+36.0119+42.9C37.9104+45.1465+41.3908+45.0199+43.1943+42.6786C44.3966+40.6219+44.3966+38.154+43.0677+36.4771" fill="#f3bb2d"/>
<path d="M68.6015+50.3672C67.937+49.7027+67.3675+49.2597+66.5765+48.9117C65.912+48.5637+65.121+48.3422+64.1085+48.3422C63.2226+48.3422+62.305+48.5637+61.6406+48.9117C60.9761+49.2597+60.4066+49.7027+59.9636+50.3672C59.5207+50.9367+59.1726+51.6011+58.9512+52.3921C58.7297+53.1831+58.6031+53.9742+58.6031+54.7335C58.6031+55.4929+58.7297+56.3155+59.0461+57.0749C59.2676+57.8659+59.7105+58.4038+60.1535+58.9733C60.5965+59.5428+61.2609+59.9858+61.957+60.3022C62.6214+60.6503+63.4124+60.7452+64.2984+60.7452C65.3109+60.7452+66.1019+60.5237+66.7663+60.1756C67.4308+59.8276+68.0952+59.3846+68.6647+58.7202L71.0061+61.1881C70.1202+62.2006+69.1077+62.8651+67.9686+63.308C66.8612+63.751+65.6273+63.9725+64.2667+63.9725C62.9378+63.9725+61.5773+63.751+60.4699+63.308C59.3625+62.8651+58.35+62.2006+57.559+61.4096C56.768+60.6186+56.1035+59.6061+55.6606+58.4987C55.2176+57.3913+54.9961+56.0308+54.9961+54.7019C54.9961+53.373+55.2176+52.0125+55.6606+50.905C56.1035+49.7976+56.768+48.7851+57.559+47.8676C58.35+47.0766+59.3625+46.4121+60.4699+45.9692C61.5773+45.5262+62.9378+45.3047+64.2667+45.3047C65.5956+45.3047+66.8296+45.5262+67.9686+45.9692C69.2026+46.4121+70.2151+47.2031+71.101+48.0891L68.6015+50.3672M76.1951+54.512C76.1951+55.398+76.3217+56.3155+76.6381+56.98C76.8596+57.771+77.3025+58.4354+77.7455+59.005C78.1885+59.5745+78.8529+60.0174+79.549+60.2389C80.2134+60.587+81.131+60.6819+82.0169+60.6819C82.9029+60.6819+83.6939+60.5553+84.4849+60.2389C85.1493+59.8909+85.8138+59.4479+86.2884+59.005C86.7313+58.4354+87.1743+57.771+87.3958+56.98C87.6173+56.189+87.8388+55.398+87.8388+54.512C87.8388+53.6261+87.7122+52.7085+87.3958+52.0441C87.1743+51.2531+86.7313+50.5886+86.2884+50.0191C85.8454+49.4496+85.181+49.0066+84.4849+48.7851C83.8204+48.4371+82.9029+48.3422+82.0169+48.3422C81.131+48.3422+80.34+48.4687+79.549+48.7851C78.8845+49.1332+78.2201+49.5761+77.7455+50.0191C77.3025+50.5886+76.8596+51.2531+76.6381+52.0441C76.4166+52.8351+76.1951+53.6261+76.1951+54.512ZM72.6198+54.512C72.6198+53.1831+72.8413+51.9492+73.2842+50.8101C73.7272+49.7027+74.3916+48.6902+75.3092+47.7726C76.1951+46.8867+77.1127+46.1906+78.3467+45.7477C79.4541+45.3047+80.688+44.9567+82.0486+44.9567C83.4091+44.9567+84.6114+45.1781+85.7505+45.7477C86.8579+46.1906+87.8704+46.8551+88.788+47.7726C89.6739+48.6586+90.2434+49.6711+90.8129+50.8101C91.2559+51.9175+91.4774+53.1515+91.4774+54.512C91.4774+55.8409+91.2559+57.0749+90.8129+58.2139C90.37+59.3214+89.7055+60.3338+88.788+61.2514C87.902+62.1373+86.9845+62.7069+85.7505+63.2764C84.6431+63.7194+83.4091+64.0674+82.0486+64.0674C80.7197+64.0674+79.4857+63.8459+78.3467+63.2764C77.2393+62.8334+76.2268+62.169+75.3092+61.2514C74.4233+60.3655+73.8537+59.4479+73.2842+58.2139C72.9678+57.0749+72.6198+55.8409+72.6198+54.512ZM94.9262+63.5928L98.2801+63.5928L98.2801+45.6844L94.9262+45.6844L94.9262+63.5928ZM94.1352+39.1665C94.1352+38.502+94.3567+37.9325+94.7996+37.363C95.2426+36.92+95.8121+36.572+96.4766+36.572C97.141+36.572+97.7105+36.7935+98.1535+37.363C98.5965+37.8059+98.8179+38.4704+98.8179+39.1665C98.8179+39.8626+98.5965+40.4005+98.1535+40.97C97.7105+41.4129+97.141+41.761+96.4766+41.761C95.8121+41.761+95.2426+41.5395+94.7996+40.97C94.3567+40.4954+94.1352+39.8309+94.1352+39.1665ZM102.963+45.6527L106.348+45.6527L106.348+48.4371L106.475+48.4371C106.918+47.4246+107.582+46.6336+108.721+46.0957C109.734+45.5262+110.968+45.2098+112.423+45.2098C113.309+45.2098+114.1+45.3363+114.891+45.6527C115.682+45.8742+116.347+46.3172+116.916+46.8867C117.486+47.4562+117.929+48.1207+118.372+49.0066C118.72+49.8925+118.941+50.905+118.941+52.139L118.941+63.6877L115.524+63.6877L115.524+53.0566C115.524+52.2656+115.397+51.4746+115.176+50.9367C114.954+50.3671+114.606+49.8293+114.29+49.4812C113.942+49.1332+113.499+48.8168+112.961+48.6902C112.518+48.5637+111.949+48.4687+111.379+48.4687C110.715+48.4687+110.05+48.5953+109.481+48.8168C108.911+49.0383+108.373+49.3863+107.899+49.9242C107.456+50.3671+107.108+51.0316+106.886+51.8226C106.665+52.6136+106.538+53.4995+106.538+54.512L106.538+63.8143L103.184+63.8143L103.184+45.6844M131.313+60.7768C132.198+60.7768+132.989+60.6503+133.78+60.3338C134.571+59.9858+135.109+59.5428+135.679+59.005C136.122+58.4354+136.565+57.771+136.786+56.98C137.008+56.189+137.229+55.398+137.229+54.4171C137.229+53.5312+137.103+52.6136+136.786+51.8542C136.565+51.0632+136.122+50.3988+135.679+49.8293C135.109+49.2597+134.571+48.8168+133.78+48.5004C132.989+48.1523+132.198+48.0574+131.313+48.0574C130.427+48.0574+129.636+48.184+128.845+48.5004C128.054+48.8484+127.516+49.2914+126.946+49.8293C126.503+50.3988+126.06+51.0632+125.839+51.8542C125.617+52.6453+125.396+53.4363+125.396+54.4171C125.396+55.303+125.522+56.2206+125.839+56.98C126.06+57.771+126.503+58.4354+126.946+59.005C127.389+59.5745+128.054+60.0174+128.845+60.3338C129.509+60.5553+130.427+60.7768+131.313+60.7768ZM140.615+63.4662L137.261+63.4662L137.261+60.9034L137.134+60.9034C136.47+61.9159+135.552+62.5803+134.445+63.1498C133.338+63.7194+132.104+63.9408+130.87+63.9408C129.541+63.9408+128.18+63.7194+127.073+63.2764C125.965+62.8334+124.953+62.169+124.162+61.2514C123.371+60.3655+122.706+59.353+122.358+58.2139C121.915+57.1065+121.694+55.8726+121.694+54.512C121.694+53.1515+121.915+51.9492+122.358+50.7152C122.801+49.6078+123.371+48.5953+124.162+47.6777C124.953+46.7918+125.965+46.0957+127.073+45.6527C128.18+45.2098+129.414+44.9883+130.87+44.9883C132.104+44.9883+133.338+45.2098+134.445+45.7793C135.552+46.3488+136.47+47.1082+137.008+48.0258L137.134+48.0258L137.134+34.5786L140.488+34.5786L140.488+63.4662C140.488+63.4662+140.615+63.4662+140.615+63.4662ZM157.732+53.0566C157.732+52.2656+157.606+51.6011+157.384+50.9367C157.163+50.2722+156.815+49.7027+156.372+49.2597C155.929+48.8168+155.359+48.4687+154.79+48.1523C154.125+47.9309+153.461+47.7094+152.543+47.7094C151.752+47.7094+150.961+47.8359+150.297+48.1523C149.632+48.5004+149.063+48.8168+148.493+49.3863C148.05+49.8293+147.607+50.3988+147.386+51.0632C147.164+51.7277+146.943+52.2972+146.943+52.8667L157.701+52.8667L157.732+53.0566ZM147.006+55.8409C147.006+56.6319+147.228+57.2964+147.576+57.9608C147.924+58.6253+148.367+59.1948+148.905+59.6378C149.474+60.0807+150.139+60.4288+150.803+60.6503C151.594+60.8717+152.258+60.9983+153.049+60.9983C154.062+60.9983+155.074+60.7768+155.834+60.2073C156.625+59.7643+157.289+59.0999+157.954+58.3089L160.517+60.3338C158.618+62.8018+155.929+64.0358+152.575+64.0358C151.119+64.0358+149.885+63.8143+148.778+63.3713C147.671+62.9284+146.658+62.2639+145.867+61.3463C145.076+60.4604+144.412+59.5428+144.064+58.3089C143.621+57.2015+143.399+55.9675+143.399+54.607C143.399+53.2781+143.621+52.0441+144.064+50.905C144.507+49.7976+145.171+48.7851+145.962+47.8676C146.753+46.9816+147.765+46.4121+148.873+45.8426C149.98+45.3996+151.214+45.1781+152.575+45.1781C154.157+45.1781+155.486+45.3996+156.593+45.9692C157.701+46.5387+158.618+47.2031+159.283+48.0891C159.947+48.975+160.517+49.9875+160.865+51.1265C161.213+52.2339+161.308+53.373+161.308+54.607L161.308+55.8409L147.006+55.8409L147.006+55.8409ZM174.533+50.1457C174.09+49.7027+173.647+49.2597+173.078+48.9117C172.508+48.5637+171.749+48.3422+170.958+48.3422C170.167+48.3422+169.502+48.5637+168.838+48.9117C168.268+49.2597+167.952+49.7027+167.952+50.3672C167.952+50.9367+168.173+51.3796+168.522+51.6011C168.87+51.9492+169.313+52.1706+169.755+52.3921C170.198+52.6136+170.768+52.7402+171.211+52.8351C171.78+52.9617+172.223+53.0566+172.54+53.0566C173.204+53.2781+173.995+53.4046+174.565+53.721C175.229+53.9425+175.799+54.2905+176.242+54.7335C176.685+55.1765+177.033+55.6194+177.349+56.189C177.571+56.7585+177.792+57.4229+177.792+58.3089C177.792+59.3214+177.571+60.2073+177.128+60.8717C176.685+61.5362+176.115+62.2006+175.451+62.6752C174.786+63.1498+173.995+63.4662+173.109+63.6877C172.223+63.9092+171.306+64.0358+170.547+64.0358C169.091+64.0358+167.762+63.8143+166.623+63.3713C165.516+62.9284+164.503+62.1373+163.586+60.9034L166.148+58.7835C166.718+59.353+167.256+59.796+167.952+60.2389C168.648+60.6819+169.407+60.9034+170.42+60.9034C170.863+60.9034+171.306+60.9034+171.749+60.7768C172.192+60.6503+172.54+60.5553+172.856+60.3338C173.204+60.1124+173.426+59.8909+173.647+59.6694C173.869+59.3214+173.995+59.005+173.995+58.6569C173.995+58.2139+173.869+57.771+173.552+57.4229C173.204+57.0749+172.888+56.8534+172.445+56.6319C172.002+56.4105+171.559+56.2839+171.116+56.189L169.787+55.8409C169.123+55.6194+168.332+55.4929+167.762+55.2714C167.098+55.0499+166.528+54.7019+166.085+54.3855C165.642+54.0374+165.199+53.4995+164.851+52.93C164.503+52.3605+164.408+51.6011+164.408+50.8101C164.408+49.9242+164.63+49.0066+164.978+48.3422C165.326+47.6777+165.864+47.1082+166.56+46.6652C167.224+46.2223+167.889+45.8742+168.68+45.6527C169.471+45.4313+170.357+45.3047+171.148+45.3047C172.382+45.3047+173.489+45.5262+174.628+45.9692C175.736+46.4121+176.653+47.2031+177.318+48.2156L174.533+50.1457M181.051+35.0216L184.405+35.0216L184.405+53.1515L192.03+45.5262L196.618+45.5262L188.455+53.5945L197.409+63.2131L192.6+63.2131L184.437+54.0374L184.437+63.2131L181.083+63.2131L181.083+35.0216" opacity="1" fill="#101820"/>
</g>
</svg>
