<?xml version="1.0" encoding="UTF-8" standalone="no"?> <!-- Created with Vectornator for iOS (http://vectornator.io/) --><!DOCTYPE svg PUBLIC "-//W3C//DTD SVG 1.1//EN" "http://www.w3.org/Graphics/SVG/1.1/DTD/svg11.dtd">
<svg width="100%" viewBox="0 0 200 105" xmlns="http://www.w3.org/2000/svg" xml:space="preserve" xmlns:vectornator="http://vectornator.io" xmlns:xlink="http://www.w3.org/1999/xlink" height="100%" version="1.1" style="fill-rule:nonzero;clip-rule:evenodd;stroke-linecap:round;stroke-linejoin:round;">
<metadata>
<vectornator:setting key="WDRulersVisible" value="true"/>
<vectornator:setting value="Points" key="WDUnits"/>
<vectornator:setting key="WDGuidesVisible" value="true"/>
<vectornator:setting value="false" key="WDDynamicGuides"/>
<vectornator:setting key="WDOutlineMode" value="false"/>
<vectornator:setting value="false" key="WDSnapToEdges"/>
<vectornator:setting value="false" key="WDDisplayWhiteBackground"/>
<vectornator:setting value="false" key="WDSnapToGrid"/>
<vectornator:setting value="false" key="WDSnapToPoints"/>
<vectornator:setting key="WDCMYKEnabledKey" value="false"/>
<vectornator:setting key="VNDimensionsVisible" value="true"/>
<vectornator:setting key="WDIsolateActiveLayer" value="false"/>
<vectornator:setting value="false" key="IsTimeLapseWatermarkDisabled"/>
<vectornator:setting value="true" key="UndoHistoryDisabled"/>
<vectornator:setting key="VNSnapToGuides" value="true"/>
</metadata>
<defs/>
<g id="Katman 1" vectornator:layerName="Katman 1">
<path fill="#ffffff" d="M19.7764+31.0375L3.64204+40.3495L3.64204+58.9735L19.7764+68.2855L35.9107+58.9735L35.9107+40.3495L19.7764+31.0375ZM19.7764+31.0375L3.64204+40.3495L3.64204+58.9735L19.7764+68.2855L35.9107+58.9735L35.9107+40.3495L19.7764+31.0375Z" opacity="1"/>
<path opacity="1" fill="#03316c" d="M26.146+61.0105L23.8504+61.0105L21.102+58.4885L21.102+57.1951L23.9474+54.4791L23.9474+50.1788L27.6657+47.7538L31.9014+50.9548L26.146+61.0105ZM16.64+54.2205L17.0604+50.1788L15.67+46.5575L23.8827+46.5575L22.5247+50.1788L22.9127+54.2205L19.744+54.2205L16.64+54.2205ZM18.5154+58.4885L15.767+61.0428L13.439+61.0428L7.65137+50.9548L11.9194+47.7861L15.67+50.1788L15.67+54.4791L18.5154+57.1951C18.5154+57.1951+18.5154+58.4885+18.5154+58.4885ZM13.4067+39.0885L26.1137+39.0885L27.6334+45.5551L11.9194+45.5551L13.4067+39.0885ZM19.7764+31.0375L3.64204+40.3495L3.64204+58.9735L19.7764+68.2855L35.9107+58.9735L35.9107+40.3495L19.7764+31.0375Z"/>
<path fill="#002e73" d="M54.0174+58.2945C49.7494+58.2945+46.613+54.9641+46.613+50.8578C46.613+46.7515+49.7817+43.3241+54.0497+43.3241C56.7657+43.3241+58.447+44.3265+59.7727+45.7815L57.7357+47.9801C56.7334+46.9131+55.6664+46.2018+54.0174+46.2018C51.6247+46.2018+49.8787+48.2711+49.8787+50.7931C49.8787+53.3798+51.657+55.4491+54.179+55.4491C55.731+55.4491+56.8627+54.7055+57.8974+53.6708L59.8697+55.6431C58.447+57.1628+56.798+58.2945+54.0174+58.2945" opacity="1"/>
<path fill="#002e73" opacity="1" d="M66.11+58.2945L62.812+58.2945L62.812+43.3565L66.11+43.3565L66.11+46.8485C67.0154+44.7145+68.6644+43.2271+71.1864+43.3565L71.1864+46.8485L70.9924+46.8485C68.1147+46.8485+66.11+48.7238+66.11+52.5391C66.11+52.5391+66.11+58.2945+66.11+58.2945Z"/>
<path fill="#002e73" d="M88.42+43.2918L81.145+62.3038L77.8147+62.3038L79.399+58.2945L73.1587+43.2918L76.683+43.2918L80.9187+54.3821L84.9927+43.2918L88.42+43.2918Z" opacity="1"/>
<path opacity="1" fill="#002e73" d="M98.12+46.1695C95.889+46.1695+93.949+47.9801+93.949+50.7931C93.949+53.6061+95.9214+55.4168+98.12+55.4168C100.383+55.4168+102.226+53.6385+102.226+50.7931C102.226+47.9478+100.351+46.1695+98.12+46.1695M98.8637+58.2621C96.5034+58.2621+95.016+57.0658+94.0137+55.7401L94.0137+62.3038L90.7157+62.3038L90.7157+43.2918L94.0137+43.2918L94.0137+45.9755C95.0807+44.4881+96.568+43.2918+98.8637+43.2918C102.259+43.2918+105.557+45.9755+105.557+50.7608C105.557+55.5461+102.291+58.2621+98.8637+58.2621"/>
<path d="M112.767+46.4281L112.767+53.4768C112.767+54.7378+113.414+55.2551+114.545+55.2551L115.839+55.2551L115.839+58.1975L113.575+58.1975C111.183+58.1975+109.469+57.1305+109.469+53.9941L109.469+46.4281L107.658+46.4281L107.658+43.6151L109.469+43.6151L109.469+39.6705L112.767+39.6705L112.767+43.6151L115.839+43.6151L115.839+46.4281C115.839+46.4281+112.767+46.4281+112.767+46.4281Z" opacity="1" fill="#002e73"/>
<path d="M126.218+46.1695C123.566+46.1695+121.885+48.2388+121.885+50.7608C121.885+53.3151+123.696+55.4168+126.25+55.4168C128.901+55.4168+130.583+53.3475+130.583+50.8255C130.647+48.2711+128.804+46.1695+126.218+46.1695M126.218+58.2945C121.853+58.2945+118.619+54.9641+118.619+50.8578C118.619+46.7191+121.885+43.3241+126.282+43.3241C130.68+43.3241+133.913+46.6545+133.913+50.7931C133.913+54.8671+130.68+58.2945+126.218+58.2945" opacity="1" fill="#002e73"/>
<path opacity="1" d="M165.373+46.1695C162.722+46.1695+161.041+48.2388+161.041+50.7608C161.041+53.3151+162.851+55.4168+165.406+55.4168C168.057+55.4168+169.738+53.3475+169.738+50.8255C169.771+48.2711+167.96+46.1695+165.373+46.1695M165.373+58.2945C161.008+58.2945+157.775+54.9641+157.775+50.8578C157.775+46.7191+161.041+43.3241+165.438+43.3241C169.835+43.3241+173.069+46.6545+173.069+50.7931C173.069+54.8671+169.803+58.2945+165.373+58.2945" fill="#002e73"/>
<path opacity="1" fill="#002e73" d="M192.598+43.2918C195.734+43.2918+197.642+45.2641+197.642+48.7885L197.642+58.2621L194.344+58.2621L194.344+49.7908C194.344+47.4951+193.277+46.2988+191.434+46.2988C189.656+46.2988+188.362+47.5598+188.362+49.8555L188.362+58.2945L185.064+58.2945L185.064+49.7908C185.064+47.5598+183.965+46.2988+182.154+46.2988C180.344+46.2988+179.083+47.6568+179.083+49.8878L179.083+58.2945L175.785+58.2945L175.785+43.3241L179.083+43.3241L179.083+45.7815C180.02+44.5205+181.249+43.3241+183.448+43.3241C185.517+43.3241+186.94+44.3265+187.716+45.8461C188.912+44.2941+190.432+43.2918+192.598+43.2918"/>
<path fill="#002e73" opacity="1" d="M139.959+55.2551L139.959+56.9365L139.862+57.0981L138.407+57.9065L138.213+57.9065L136.791+57.0981L136.694+56.9365L136.694+55.2551L136.791+55.0935L138.213+54.2851L138.407+54.2851L139.862+55.0935L139.959+55.2551Z"/>
<path d="M149.95+58.2621C145.682+58.1651+142.611+54.7701+142.675+50.6638C142.74+46.5575+145.973+43.1948+150.274+43.2918C152.99+43.3565+154.671+44.3911+155.964+45.8785L153.895+48.0448C152.925+46.9778+151.858+46.2018+150.209+46.1695C147.816+46.1371+146.038+48.1418+146.006+50.6961C145.941+53.2828+147.687+55.3845+150.209+55.4168C151.761+55.4491+152.925+54.7378+153.96+53.7031L155.9+55.7078C154.445+57.2275+152.763+58.3268+149.95+58.2621" opacity="1" fill="#002e73"/>
</g>
</svg>
