<?xml version="1.0" encoding="UTF-8" standalone="no"?> <!-- Created with Vectornator for iOS (http://vectornator.io/) --><!DOCTYPE svg PUBLIC "-//W3C//DTD SVG 1.1//EN" "http://www.w3.org/Graphics/SVG/1.1/DTD/svg11.dtd">
<svg xmlns="http://www.w3.org/2000/svg" xmlns:xlink="http://www.w3.org/1999/xlink" xml:space="preserve" xmlns:vectornator="http://vectornator.io" viewBox="0 0 200 105" width="100%" height="100%" version="1.1" style="fill-rule:nonzero;clip-rule:evenodd;stroke-linecap:round;stroke-linejoin:round;">
<metadata>
<vectornator:setting value="false" key="WDDynamicGuides"/>
<vectornator:setting key="WDOutlineMode" value="false"/>
<vectornator:setting value="false" key="WDSnapToPoints"/>
<vectornator:setting value="true" key="WDGuidesVisible"/>
<vectornator:setting key="WDIsolateActiveLayer" value="false"/>
<vectornator:setting key="WDRulersVisible" value="true"/>
<vectornator:setting key="VNSnapToGuides" value="true"/>
<vectornator:setting key="WDSnapToEdges" value="false"/>
<vectornator:setting value="false" key="WDDisplayWhiteBackground"/>
<vectornator:setting value="Points" key="WDUnits"/>
<vectornator:setting key="WDCMYKEnabledKey" value="false"/>
<vectornator:setting key="UndoHistoryDisabled" value="true"/>
<vectornator:setting key="VNDimensionsVisible" value="true"/>
<vectornator:setting key="IsTimeLapseWatermarkDisabled" value="false"/>
<vectornator:setting value="false" key="WDSnapToGrid"/>
</metadata>
<defs/>
<g vectornator:layerName="Katman 1" id="Katman 1">
<path d="M36.7761+23.9607C31.2718+24.6372+25.214+27.4663+20.0479+31.8328C19.0024+32.6938+16.8192+34.8156+16.8192+34.9386C16.8192+35.0001+17.8647+36.1071+19.1562+37.3986L21.4932+39.7664L20.5092+40.8734C16.8807+44.9632+14.4206+49.1145+12.9446+53.5118C12.0221+56.2793+11.6224+58.5548+11.6224+61.1071C11.6224+63.4133+11.9299+65.2891+12.6371+67.1034L12.9139+67.8414L19.7712+74.6987C25.4907+80.4182+26.7822+81.6483+27.4895+82.1095C28.9655+83.0935+30.6875+83.77+32.594+84.1698C33.8548+84.4465+36.7761+84.5388+38.1598+84.3543C43.6334+83.6778+49.2915+81.0948+54.2422+76.9742C55.5338+75.898+57.717+73.8377+57.717+73.7147C57.717+73.6532+56.6408+72.5462+55.3493+71.2239L52.9815+68.8254L53.7195+68.0566C55.5338+66.1501+57.7478+63.1058+59.0393+60.7073C60.8843+57.3555+62.0836+53.727+62.4833+50.406C62.6371+48.9607+62.5448+45.8857+62.2988+44.7172C61.8683+42.7492+61.1918+41.1501+60.177+39.6126C59.6543+38.8131+58.6088+37.7369+52.8277+31.9251L46.0627+25.16L45.3554+24.8832C44.4022+24.4835+42.4341+24.0222+41.2349+23.8992C40.0356+23.7762+38.1599+23.807+36.7761+23.9607ZM42.5879+25.775C43.0799+25.898+43.8794+26.0825+44.3099+26.2363C45.1094+26.513+45.1402+26.513+46.4009+27.7738C47.5079+28.8808+47.6617+29.0345+47.3849+29.0038C45.9089+28.727+43.5412+28.6655+41.6961+28.9115C35.7921+29.6495+29.7035+32.6323+24.107+37.5524C23.5535+38.0444+23.0615+38.4749+22.9692+38.5364C22.877+38.5979+22.385+38.1981+20.9397+36.7529L19.0332+34.8463L20.2632+33.7701C25.3985+29.2805+31.0565+26.4515+36.5916+25.652C38.0676+25.4367+41.3579+25.529+42.5879+25.775ZM50.6445+35.5536C53.3505+35.9533+55.7183+37.1219+57.471+38.8746C59.193+40.5966+60.3001+42.8107+60.8228+45.5782C61.0381+46.8082+61.0381+49.5757+60.8228+51.021C60.1156+55.4798+58.0553+60.0616+54.8573+64.2436C54.1192+65.2276+52.3665+67.2879+52.0897+67.5031C51.936+67.6261+51.7515+67.4724+50.1525+65.8734C49.1685+64.8894+48.3689+64.0591+48.3689+64.0283C48.3689+63.9976+48.6457+63.6593+48.984+63.2903C54.5498+57.1403+57.1635+49.4527+55.3185+44.6864C54.5805+42.8414+53.043+41.4576+51.0442+40.8426C50.0295+40.5351+48.2459+40.3814+46.9237+40.5351C44.8942+40.7196+42.4034+41.5191+40.0049+42.6877C37.6063+43.8562+35.4231+45.3322+33.3013+47.2387L32.3481+48.069L30.5338+46.2547L28.7195+44.4404L29.4883+43.7332C34.1931+39.3359+40.4354+36.1993+45.7859+35.4921C46.8622+35.3998+49.6297+35.3998+50.6445+35.5536ZM25.214+46.1624C24.5375+46.9312+23.6765+48.0075+23.246+48.561C18.1414+55.3568+15.8044+62.7368+16.7577+69.1021L16.8192+69.5019L15.5584+68.2719C14.3591+67.1034+14.2976+67.0111+14.0516+66.2731C11.6531+59.3851+14.6666+49.8832+21.77+41.9189L22.6002+40.9964L24.5067+42.9029L26.4132+44.8094L25.214+46.1624ZM49.23+42.2264L49.476+42.2879L49.4145+43.5794C49.353+45.1169+49.1377+46.3777+48.8302+47.454C47.8462+50.6827+46.0319+53.9115+43.3874+56.9558L42.3726+58.1243L40.4354+56.187L38.4981+54.2498L39.3899+53.2658C41.2964+51.1747+43.0491+48.7455+44.1254+46.6852C44.7097+45.5782+45.4784+43.7024+45.6937+42.8414C45.8167+42.3187+45.8167+42.3187+46.2779+42.2572C46.5239+42.2264+46.8007+42.1957+46.8929+42.1649C47.1389+42.1649+49.0147+42.1649+49.23+42.2264ZM43.7257+43.5794C43.2951+44.7787+42.3419+46.6237+41.4194+48.0075C40.4046+49.545+39.6974+50.4675+38.2829+52.0665L37.2988+53.2042L35.3616+51.267L33.4243+49.3297L34.0701+48.7455C36.0688+46.9619+38.4059+45.3629+40.5584+44.2559C41.7269+43.6717+43.6334+42.9029+43.9102+42.8722C43.9409+42.8722+43.8794+43.1797+43.7257+43.5794ZM73.1844+44.7479C73.0922+44.8402+73.0614+47.3924+73.0614+56.7405C73.0614+68.1181+73.0614+68.6101+73.2459+68.7639C73.3997+68.9176+73.8917+68.9176+78.043+68.9176C80.5645+68.9176+83.3013+68.8561+84.1008+68.8254C87.3295+68.6101+89.8203+67.5646+91.7268+65.6581C93.2336+64.1513+94.1869+62.0603+94.6789+59.2928C94.8941+57.9398+94.8941+55.1108+94.6789+53.7885C93.8794+49.3297+91.3271+46.4392+87.2373+45.2707C85.2385+44.7172+85.0848+44.6864+78.9962+44.6557C74.4759+44.6557+73.2767+44.6557+73.1844+44.7479ZM185.146+45.1477C185.054+45.2399+185.023+46.0087+185.023+47.9767L185.023+50.6827L183.855+50.6827C183.086+50.6827+182.655+50.7135+182.563+50.8057C182.409+50.9595+182.409+54.1575+182.563+54.342C182.655+54.4343+183.086+54.465+183.855+54.465L185.023+54.465L185.054+59.9386C185.085+65.2891+185.085+65.4429+185.3+66.0579C185.884+67.7491+187.083+68.6716+189.021+68.9176C190.343+69.0714+192.219+69.0099+193.51+68.7639L193.787+68.7024L193.756+66.4576L193.726+64.2129L192.495+64.1514C191.173+64.0898+190.958+64.0283+190.804+63.7516C190.743+63.6286+190.712+61.7836+190.712+59.0468L190.712+54.5265L192.28+54.4958L193.849+54.465L193.849+52.5892L193.849+50.7135L192.28+50.6827L190.712+50.652L190.712+48.0075C190.712+46.3777+190.681+45.3014+190.62+45.1784C190.527+44.9939+190.374+44.9939+187.914+44.9939C185.976+45.0554+185.238+45.0862+185.146+45.1477ZM84.5005+50.3445C86.3763+50.8365+87.6063+52.1587+88.0983+54.096C88.4673+55.572+88.4673+58.032+88.0676+59.5696C87.6678+61.0763+86.7453+62.2756+85.5153+62.8598C84.439+63.3826+83.7933+63.4748+81.5792+63.5363L79.5805+63.5978L79.5805+56.8328L79.5805+50.0677L81.733+50.1292C83.3013+50.16+84.07+50.2215+84.5005+50.3445ZM103.289+50.4675C100.214+51.021+97.8461+53.0505+96.8006+56.0025C95.4169+59.8771+96.0934+64.3051+98.4304+66.7959C99.6604+68.0874+100.829+68.7639+102.612+69.2251C106.026+70.0862+109.685+69.1944+112.114+66.9189C112.699+66.3961+114.205+64.4896+114.205+64.3051C114.205+64.0898+113.775+63.8131+112.022+62.9213C110.946+62.3678+110.054+61.9066+110.023+61.9066C109.993+61.9066+109.808+62.1833+109.623+62.5216C109.193+63.3518+108.301+64.2743+107.655+64.6126C105.718+65.5659+103.443+65.0124+102.459+63.3518C102.182+62.8598+101.905+61.9988+101.905+61.5376L101.905+61.1993L108.055+61.1993C112.699+61.1993+114.205+61.1686+114.298+61.0763C114.451+60.9226+114.451+59.6926+114.267+58.4625C113.775+55.1723+112.391+52.8045+110.177+51.4822C109.439+51.0517+108.024+50.5597+107.102+50.406C106.179+50.2522+104.211+50.283+103.289+50.4675ZM123.492+50.3445C122.631+50.4675+121.924+50.6212+121.37+50.8057C118.264+51.7897+116.204+54.342+115.558+57.9705C115.312+59.3543+115.405+61.5683+115.743+62.8906C116.204+64.6741+116.881+65.8426+118.111+67.0111C119.187+68.0259+120.448+68.7331+122.139+69.1944C122.631+69.3481+123.123+69.3789+124.384+69.3789C125.829+69.3789+126.044+69.3481+126.844+69.1021C128.443+68.6101+129.673+67.8721+130.78+66.7036C131.518+65.9349+132.348+64.7971+132.348+64.5511C132.348+64.4589+132.194+64.3051+132.04+64.1821C131.395+63.7823+128.412+62.3063+128.258+62.3063C128.166+62.3063+128.012+62.5216+127.858+62.8291C127.489+63.6286+126.997+64.1513+126.229+64.5204C125.644+64.7971+125.46+64.8586+124.814+64.8279C123.953+64.8279+123.4+64.6126+122.692+63.9976C120.847+62.3678+120.724+57.8475+122.477+55.7873C123.584+54.4958+125.644+54.4958+126.967+55.7565C127.182+55.9718+127.489+56.3715+127.643+56.6483C127.797+56.925+127.981+57.171+128.074+57.171C128.289+57.2325+132.071+55.0493+132.133+54.834C132.163+54.6495+131.764+54.0345+131.179+53.2965C130.226+52.128+128.35+50.9902+126.721+50.6212C125.89+50.406+124.107+50.283+123.492+50.3445ZM172.815+50.5597C171.801+50.7442+170.878+51.1132+170.14+51.6667L169.556+52.0972L169.525+51.4822L169.494+50.8672L167.127+50.8365C165.035+50.8057+164.728+50.8365+164.574+50.9902C164.39+51.144+164.39+51.6052+164.39+62.9828C164.39+72.0542+164.42+74.8217+164.513+74.9139C164.697+75.0985+169.863+75.0985+170.017+74.9139C170.109+74.8217+170.14+73.8992+170.14+71.4084L170.14+68.0259L171.093+68.5179C172.385+69.1636+173.184+69.3174+174.691+69.2559C176.444+69.1636+177.489+68.8254+178.627+67.9644C180.226+66.7651+181.272+64.9201+181.856+62.3678C182.163+61.0148+182.163+58.6471+181.856+57.2018C181.456+55.2953+180.81+54.0038+179.642+52.7738C177.92+50.8672+175.398+50.0985+172.815+50.5597ZM34.1316+52.374C35.7921+54.0345+35.8843+54.1575+35.7613+54.342C35.6691+54.4343+35.2693+54.8955+34.8388+55.3875C33.1168+57.3555+31.5178+59.7541+30.4415+61.9681C29.6728+63.5363+29.2115+64.8279+28.7503+66.5806C28.166+68.8869+28.166+71.4392+28.8118+73.2227C30.011+76.6052+33.1783+78.2042+37.6063+77.6815C41.8806+77.1587+46.8007+74.6987+51.0135+70.9779L51.9052+70.1784L53.7195+71.9927L55.5338+73.8069L54.765+74.5142C50.829+78.1735+45.5707+81.1563+41.0196+82.2633C39.1746+82.7245+37.8831+82.8783+36.1303+82.8783C33.7933+82.8783+32.0713+82.5708+30.257+81.7713C27.92+80.7565+25.7675+78.7577+24.6605+76.5437C23.2767+73.8069+22.877+70.4244+23.492+66.7651C24.353+61.6606+27.2128+56.187+31.4255+51.4822C31.856+50.9902+32.2558+50.5905+32.2865+50.5905C32.3173+50.5905+33.1476+51.39+34.1316+52.374ZM143.541+50.7135C142.342+50.898+140.835+51.4515+139.851+52.0972L139.544+52.3125L139.544+51.6667C139.544+51.2977+139.482+50.9902+139.421+50.898C139.328+50.8057+138.621+50.775+136.807+50.775C134.531+50.775+134.285+50.775+134.162+50.9595C134.008+51.1132+134.008+51.882+134.008+59.8771C134.008+68.2104+134.008+68.6101+134.193+68.7639C134.347+68.9176+134.685+68.9176+136.899+68.9176C138.867+68.9176+139.451+68.8869+139.544+68.7946C139.605+68.7024+139.667+66.8881+139.667+63.1673C139.697+58.0013+139.697+57.6323+139.882+57.294C140.251+56.556+140.897+56.2485+142.772+55.941C143.48+55.818+144.187+55.695+144.341+55.6643L144.617+55.6028L144.617+53.2043C144.617+50.8057+144.587+50.529+144.279+50.5905C144.156+50.6212+143.849+50.652+143.541+50.7135ZM146.063+50.9287C146.001+51.021+145.97+51.1747+146.001+51.3285C146.032+51.4515+146.862+54.1575+147.846+57.294C151.782+69.9631+151.567+69.2251+151.29+69.7171C151.044+70.2092+150.614+70.3014+149.076+70.3014C148.123+70.3014+147.631+70.3322+147.569+70.4244C147.477+70.5167+147.446+71.1317+147.446+72.6384C147.446+74.1452+147.477+74.7602+147.569+74.8524C147.723+75.0062+151.628+75.0062+152.643+74.8832C154.334+74.6372+155.718+73.4379+156.518+71.5314C156.702+71.1317+158.27+66.3654+160.023+60.9533C162.698+52.7737+163.221+51.0825+163.098+50.9595C163.006+50.8365+162.545+50.8057+160.115+50.8057L157.256+50.8057L157.163+51.2362C157.102+51.4822+156.518+54.0345+155.841+56.9558C155.165+59.8771+154.611+62.3063+154.55+62.3371C154.519+62.3678+153.873+59.7848+153.166+56.6175L151.844+50.8057L148.984+50.8057C146.616+50.8057+146.155+50.8057+146.063+50.9287ZM106.794+54.7725C107.717+55.203+108.332+56.0333+108.516+57.048L108.578+57.417L105.288+57.417L101.997+57.417L102.059+57.1095C102.182+56.556+102.705+55.6643+103.135+55.2953C103.873+54.6495+104.519+54.4343+105.534+54.4958C106.026+54.5265+106.395+54.6188+106.794+54.7725ZM174.66+54.9263C175.521+55.3875+176.167+56.3408+176.475+57.6323C176.69+58.5855+176.69+60.8611+176.444+61.8143C176.229+62.6446+175.798+63.5056+175.337+64.0898C174.599+64.9816+173.154+65.2276+171.985+64.6434C170.632+63.9668+169.986+62.4601+169.986+59.9386C169.986+57.6015+170.601+55.941+171.739+55.1108C172.631+54.4958+173.707+54.4343+174.66+54.9263ZM40.1586+59.9078C37.6371+62.2756+34.4083+64.3974+31.733+65.4736C31.1795+65.6889+30.6875+65.8734+30.6568+65.8734C30.626+65.8734+30.749+65.5351+30.9028+65.1046C32.0713+61.8758+34.1008+58.5856+36.5301+55.9718L37.1143+55.3568L39.0516+57.2633L40.9889+59.1698L40.1586+59.9078ZM44.0332+62.3063L45.9089+64.1821L45.3247+64.7356C42.2496+67.6261+37.5141+70.2399+34.1623+70.9472C33.3321+71.1317+31.487+71.3162+30.5953+71.3162L30.011+71.3162L30.011+69.9016C30.011+69.1329+30.0418+68.3026+30.0725+68.1181L30.134+67.7491L31.3333+67.3494C34.3776+66.3654+38.2521+63.9361+41.1119+61.2301C41.5731+60.7996+42.0036+60.4306+42.0651+60.4306C42.1266+60.4306+43.0184+61.2608+44.0332+62.3063Z" fill="#1d1d1b" fill-rule="evenodd" opacity="1"/>
</g>
</svg>
