<?xml version="1.0" encoding="UTF-8" standalone="no"?> <!-- Created with Vectornator for iOS (http://vectornator.io/) --><!DOCTYPE svg PUBLIC "-//W3C//DTD SVG 1.1//EN" "http://www.w3.org/Graphics/SVG/1.1/DTD/svg11.dtd">
<svg height="100%" xml:space="preserve" width="100%" version="1.1" style="fill-rule:nonzero;clip-rule:evenodd;stroke-linecap:round;stroke-linejoin:round;" xmlns="http://www.w3.org/2000/svg" xmlns:xlink="http://www.w3.org/1999/xlink" xmlns:vectornator="http://vectornator.io" viewBox="0 0 200 105">
<metadata>
<vectornator:setting key="WDSnapToEdges" value="false"/>
<vectornator:setting key="VNSnapToGuides" value="true"/>
<vectornator:setting key="WDOutlineMode" value="false"/>
<vectornator:setting value="false" key="IsTimeLapseWatermarkDisabled"/>
<vectornator:setting key="WDDisplayWhiteBackground" value="false"/>
<vectornator:setting key="WDIsolateActiveLayer" value="false"/>
<vectornator:setting key="WDSnapToGrid" value="false"/>
<vectornator:setting value="Points" key="WDUnits"/>
<vectornator:setting value="false" key="WDCMYKEnabledKey"/>
<vectornator:setting key="UndoHistoryDisabled" value="true"/>
<vectornator:setting key="WDRulersVisible" value="true"/>
<vectornator:setting value="false" key="WDSnapToPoints"/>
<vectornator:setting key="WDDynamicGuides" value="false"/>
<vectornator:setting key="VNDimensionsVisible" value="true"/>
<vectornator:setting key="WDGuidesVisible" value="true"/>
</metadata>
<defs/>
<g vectornator:layerName="Katman 1" id="Katman 1">
<g opacity="1">
<path d="M38.6091+50.4689L38.1571+50.0151C37.8161+49.6745+37.2295+49.9157+37.2295+50.399L37.2295+56.8793C37.2295+57.1789+37.4747+57.422+37.7751+57.422L44.2565+57.422C44.7394+57.422+44.9835+56.8366+44.6394+56.4955C44.4281+56.2835+44.4281+55.9405+44.6394+55.7285L51.5337+48.8155C51.7454+48.6042+51.7454+48.261+51.5337+48.0481L50.9057+47.4224C50.5645+47.0817+50.8078+46.4962+51.2896+46.4962L57.7675+46.4962C58.067+46.4962+58.3119+46.7394+58.3119+47.039L58.3119+53.5196C58.3119+54.0023+57.7238+54.2447+57.3825+53.9035L56.945+53.4669C56.7306+53.2491+56.3894+53.2491+56.179+53.4669L44.5566+65.0843C44.3454+65.2949+44.0022+65.2949+43.788+65.0843L29.5684+50.8639C29.4657+50.7621+29.408+50.6236+29.408+50.479C29.408+50.3345+29.4657+50.1959+29.5684+50.0942L49.2537+30.4094C49.4643+30.1975+49.4643+29.8518+49.2537+29.6407L44.6249+25.0122C44.412+24.8013+44.069+24.8013+43.8562+25.0122L18.3745+50.4968C18.1633+50.7087+18.1633+51.0544+18.3745+51.2654L43.8562+76.7472C44.0675+76.9578+44.4143+76.9578+44.6249+76.7472L70.1057+51.2654C70.3162+51.0536+70.3162+50.7097+70.1057+50.4985L55.1145+35.507C54.9048+35.2961+54.5599+35.2961+54.3475+35.507L39.3788+50.4691C39.277+50.5717+39.1385+50.6295+38.994+50.6295C38.8495+50.6295+38.7109+50.5717+38.6092+50.4691C38.6092+50.4691+38.6091+50.4689+38.6091+50.4689ZM156.234+56.9165C155.577+56.9165+155.01+57.152+154.535+57.6253C154.066+58.099+153.826+58.6583+153.826+59.3059C153.826+60.2931+154.327+61.061+155.321+61.6097C156.412+61.9075+157.289+61.7137+157.949+61.0385C158.426+60.5619+158.661+59.9904+158.661+59.3245C158.661+58.6505+158.426+58.0871+157.949+57.6255C157.476+57.1551+156.907+56.9201+156.232+56.9201L156.234+56.9172C156.234+56.9172+156.234+56.9165+156.234+56.9165ZM117.512+38.5997L115.715+38.5997C114.939+38.5997+114.308+39.2262+114.308+40.0022L114.308+41.0043C112.397+39.0167+110.233+38.0224+107.816+38.0224C105.025+38.0224+102.696+39.0611+100.839+41.1327C98.9769+43.2042+98.0496+45.7936+98.0496+48.9026C98.0496+52.0647+98.9769+54.7047+100.834+56.8205C102.711+58.8931+105.078+59.9291+107.946+59.9291C110.214+59.9291+112.336+59.0032+114.308+57.1562L114.308+59.1375C114.308+60.0999+115.09+60.8822+116.051+60.8822L119.119+60.8822L119.119+40.2055C119.119+39.3209+118.398+38.5997+117.512+38.5997ZM112.971+53.8171C111.878+55.0379+110.447+55.6473+108.671+55.6473C107.008+55.6473+105.631+55.0163+104.542+53.7543C103.475+52.5076+102.943+50.8853+102.943+48.8995C102.943+47.0418+103.49+45.4773+104.582+44.2158C105.688+42.9658+107.065+42.3443+108.712+42.3443C110.458+42.3443+111.875+42.9601+112.969+44.2004C114.062+45.4622+114.609+47.0633+114.609+49.008C114.609+50.9529+114.062+52.5538+112.969+53.8187L112.972+53.8172C112.972+53.8172+112.971+53.8171+112.971+53.8171ZM98.0479+42.0983L98.0479+40.0482C98.0479+39.2479+97.4002+38.6033+96.5995+38.6033L94.7062+38.6033C93.9085+38.6033+93.2595+39.2449+93.2595+40.0482L93.2595+40.9437C91.5278+38.9976+89.3566+38.0228+86.7455+38.0228C83.7655+38.0228+81.3644+39.1471+79.5492+41.3865C77.8599+43.4979+77.0158+46.069+77.0158+49.0922C77.0158+52.1996+77.926+54.7921+79.7434+56.862C81.5459+58.9107+83.8582+59.9265+86.6829+59.9265C89.1634+59.9265+91.3575+58.9581+93.2594+57.0131L93.2594+59.9083C93.2594+64.2102+91.5074+66.3612+88.0031+66.3612C86.1007+66.3612+84.6555+65.7135+83.6624+64.4212C83.4091+64.0941+83.1989+63.6848+83.0316+63.1959C82.7969+62.5115+82.1461+62.0563+81.4249+62.0563L79.6099+62.0563C78.6946+62.0563+78.0144+62.927+78.2459+63.813C78.7423+65.6981+79.7008+67.2319+81.1279+68.4189C82.9157+69.9102+85.195+70.6574+87.9603+70.6574C91.2379+70.6574+93.8142+69.5758+95.6888+67.4217C96.682+66.3004+97.3464+64.959+97.6879+63.3978C97.8018+62.8326+97.8909+62.1744+97.9537+61.4272C98.0162+60.6847+98.0473+59.8229+98.0473+58.8424L98.0473+55.8298C96.7071+53.8972+96.0325+51.5888+96.0325+48.9003C96.0325+46.2588+96.7057+43.9964+98.0473+42.1005L98.0473+42.099C98.0473+42.099+98.0479+42.0983+98.0479+42.0983ZM91.9814+53.6536C90.9176+54.9827+89.4723+55.6471+87.6391+55.6471C85.8083+55.6471+84.3753+54.9869+83.3373+53.6657C82.3885+52.4621+81.9132+50.9127+81.9132+49.0277C81.9132+47.1104+82.3883+45.5492+83.3373+44.344C84.39+42.998+85.8214+42.3246+87.6391+42.3246C89.3411+42.3246+90.7396+42.9415+91.831+44.1745C92.91+45.3799+93.4515+46.9904+93.4515+49.0084C93.4515+50.895+92.9604+52.4409+91.9812+53.6508L91.9812+53.6541C91.9812+53.6541+91.9814+53.6536+91.9814+53.6536ZM137.863+38.615L137.863+38.5999L127.93+38.5999L127.93+32.5181C127.93+31.736+127.298+31.102+126.514+31.102L124.575+31.102C123.784+31.102+123.142+31.7436+123.142+32.5351L123.142+38.6L121.097+38.6L121.097+43.0669L123.139+43.0669L123.139+60.8796L125.871+60.8796C126.416+60.8808+126.94+60.6645+127.326+60.2786C127.712+59.8927+127.928+59.369+127.927+58.8232L127.927+43.0698L132.839+43.0698C133.224+42.3303+133.7+41.6415+134.255+41.0195C135.272+39.9105+136.476+39.1069+137.86+38.615L137.863+38.615C137.863+38.615+137.863+38.615+137.863+38.615ZM162.303+31.1019C161.453+31.1019+160.723+31.4075+160.112+32.0185C159.504+32.6279+159.195+33.3536+159.195+34.1893C159.195+35.0711+159.501+35.8102+160.112+36.4261C160.723+37.0354+161.462+37.3396+162.327+37.3396C163.193+37.3396+163.922+37.0355+164.516+36.4243C165.126+35.8102+165.435+35.0771+165.435+34.2109C165.435+33.3475+165.129+32.6145+164.518+32.0218C163.905+31.4077+163.168+31.1019+162.303+31.1019ZM163.273+40.9462L161.536+40.9462C160.645+40.9462+159.919+41.6675+159.919+42.5625L159.919+57.769C160.286+58.1984+160.46+58.704+160.46+59.2921C160.46+59.8801+160.286+60.3918+159.919+60.8243L159.919+61.6801L163.002+61.6801C163.947+61.6801+164.71+60.9146+164.71+59.9688L164.71+42.3793C164.71+41.5877+164.066+40.9462+163.271+40.9462C163.271+40.9462+163.273+40.9462+163.273+40.9462ZM185.783+43.8827C183.626+41.7697+181+40.7125+177.906+40.7125C174.827+40.7125+172.214+41.7606+170.072+43.8643C167.931+45.9632+166.858+48.5115+166.858+51.5057C166.858+54.6833+167.906+57.3232+170.008+59.4251C172.11+61.5518+174.716+62.6165+177.82+62.6165C180.955+62.6165+183.603+61.5745+185.762+59.4877C187.9+57.384+188.976+54.7839+188.976+51.6752C188.976+48.5939+187.911+45.9967+185.783+43.8794C185.783+43.8794+185.783+43.8827+185.783+43.8827ZM182.394+56.5287C181.276+57.737+179.779+58.3344+177.907+58.3344C176.044+58.3344+174.548+57.728+173.412+56.5041C172.306+55.3005+171.752+53.6568+171.752+51.5882C171.752+49.6603+172.323+48.0837+173.458+46.8646C174.591+45.6454+176.074+45.0327+177.906+45.0327C179.762+45.0327+181.261+45.6454+182.394+46.8646C183.516+48.0683+184.078+49.6817+184.078+51.6921C184.078+53.7117+183.516+55.3187+182.394+56.5255C182.394+56.5255+182.394+56.5287+182.394+56.5287Z" opacity="1" fill="#de5959"/>
<path opacity="1" fill="#de5959" d="M139.647+55.6915C138.66+54.6922+138.109+53.3296+137.982+51.6278L151.71+51.6278C152.336+51.6278+152.853+51.1267+152.862+50.5019C152.862+47.0753+151.982+44.4048+150.223+42.4736C148.447+40.5308+146.033+39.559+142.983+39.559C139.965+39.559+137.536+40.5611+135.706+42.5595C133.888+44.5912+132.981+47.243+132.981+50.5216C132.981+53.8277+133.919+56.4826+135.788+58.4811C137.096+59.8711+138.699+60.7723+140.601+61.1925C141.398+61.3802+142.226+61.4779+143.062+61.4656C146.473+61.5361+149.438+61.6063+152.848+61.6766L152.853+61.177C152.435+60.7235+152.226+60.1765+152.226+59.5377C152.226+58.9176+152.445+58.3845+152.87+57.9232L152.874+57.3167C150.182+57.2494+143.665+57.1852+143.405+57.1852C141.878+57.1852+140.622+56.6918+139.647+55.6944L139.647+55.6915C139.647+55.6915+139.647+55.6915+139.647+55.6915ZM138.981+46.116C139.282+45.6484+139.638+45.2482+140.058+44.9152C140.478+44.5776+140.94+44.3254+141.453+44.1483C141.963+43.9711+142.51+43.8824+143.094+43.8824C145.645+43.8824+147.255+45.158+147.927+47.7109L138.302+47.7109C138.459+47.1165+138.685+46.5849+138.981+46.1158C138.981+46.1158+138.981+46.116+138.981+46.116Z"/>
</g>
</g>
</svg>
