<?xml version="1.0" encoding="UTF-8" standalone="no"?> <!-- Created with Vectornator for iOS (http://vectornator.io/) --><!DOCTYPE svg PUBLIC "-//W3C//DTD SVG 1.1//EN" "http://www.w3.org/Graphics/SVG/1.1/DTD/svg11.dtd">
<svg xmlns="http://www.w3.org/2000/svg" version="1.1" viewBox="0 0 200 105" height="100%" xmlns:vectornator="http://vectornator.io" xml:space="preserve" xmlns:xlink="http://www.w3.org/1999/xlink" style="fill-rule:nonzero;clip-rule:evenodd;stroke-linecap:round;stroke-linejoin:round;" width="100%">
<metadata>
<vectornator:setting key="WDSnapToEdges" value="false"/>
<vectornator:setting key="WDDynamicGuides" value="false"/>
<vectornator:setting value="Points" key="WDUnits"/>
<vectornator:setting key="IsTimeLapseWatermarkDisabled" value="false"/>
<vectornator:setting key="WDCMYKEnabledKey" value="false"/>
<vectornator:setting key="WDGuidesVisible" value="true"/>
<vectornator:setting value="true" key="VNSnapToGuides"/>
<vectornator:setting key="VNDimensionsVisible" value="true"/>
<vectornator:setting key="UndoHistoryDisabled" value="true"/>
<vectornator:setting key="WDSnapToPoints" value="false"/>
<vectornator:setting value="false" key="WDDisplayWhiteBackground"/>
<vectornator:setting value="false" key="WDIsolateActiveLayer"/>
<vectornator:setting key="WDRulersVisible" value="true"/>
<vectornator:setting value="false" key="WDOutlineMode"/>
<vectornator:setting key="WDSnapToGrid" value="false"/>
</metadata>
<defs/>
<g id="Katman 1" vectornator:layerName="Katman 1">
<path opacity="1" d="M42.432+54.0749C41.9605+54.0749+41.7247+53.9571+41.489+53.8392C41.3711+53.6034+41.2532+53.3677+41.2532+53.0141L41.2532+39.812C41.2532+39.4583+41.3711+39.1047+41.489+38.9868C41.7247+38.7511+41.9605+38.6332+42.432+38.6332L47.9721+38.6332C50.0939+38.6332+51.6263+39.1047+52.6872+39.9299C53.6302+40.8729+54.2195+42.1695+54.2195+43.9376C54.2195+45.7058+53.748+47.0024+52.6872+47.9454C51.7442+48.7705+50.0939+49.242+47.9721+49.242L45.8504+49.242L45.8504+52.8962C45.8504+53.2498+45.7325+53.6034+45.6146+53.7213C45.3789+53.9571+45.1431+53.9571+44.6716+53.9571L42.432+53.9571L42.432+54.0749ZM47.6185+45.9415C48.2079+45.9415+48.6794+45.8236+49.033+45.47C49.3866+45.1164+49.5045+44.6449+49.5045+43.9376C49.5045+43.2304+49.3866+42.7589+49.033+42.4052C48.6794+42.0516+48.2079+41.9337+47.6185+41.9337L45.8504+41.9337L45.8504+45.9415C45.8504+45.9415+47.6185+45.9415+47.6185+45.9415Z" fill="#000000"/>
<path d="M59.524+54.4286C58.1094+54.4286+56.9307+53.9571+56.1056+53.0141C55.2804+52.0711+54.8089+50.7744+54.8089+49.1242C54.8089+47.8275+55.0447+46.7666+55.6341+45.8236C56.2234+44.8806+57.0486+44.1734+58.1094+43.584C59.1703+43.1125+60.467+42.7589+61.7636+42.7589C62.9424+42.7589+63.8854+42.8767+64.8284+43.1125C65.7714+43.3483+66.4786+43.7019+67.3038+44.1734L67.3038+53.2498C67.3038+53.4856+67.3038+53.7213+67.1859+53.8392C67.068+53.9571+66.8323+53.9571+66.5965+53.9571L64.239+53.9571C64.1211+53.9571+63.8854+53.9571+63.8854+53.8392C63.7675+53.7213+63.7675+53.7213+63.6496+53.6034L63.296+52.8962C62.8245+53.3677+62.353+53.7213+61.7636+53.9571C61.1742+54.3107+60.3491+54.4286+59.524+54.4286ZM61.1742+51.3638C61.7636+51.3638+62.2351+51.2459+62.5887+50.8923C62.9424+50.6566+63.0602+50.185+63.0602+49.7135L63.0602+46.1773C62.8245+46.0594+62.353+45.9415+61.9993+45.9415C61.1742+45.9415+60.5848+46.1773+60.1133+46.7667C59.6418+47.356+59.4061+48.0633+59.4061+49.1242C59.4061+50.5387+59.9955+51.3638+61.1742+51.3638Z" fill="#000000" opacity="1"/>
<path fill="#000000" d="M70.4864+54.0749C70.0149+54.0749+69.7792+53.9571+69.5434+53.8392C69.3076+53.6034+69.3076+53.3677+69.3076+53.0141L69.3076+43.8198C69.3076+43.584+69.3076+43.3483+69.4255+43.2304C69.5434+43.1125+69.7792+43.1125+70.0149+43.1125L72.3724+43.1125C72.6082+43.1125+72.726+43.1125+72.726+43.2304C72.8439+43.2304+72.8439+43.3483+72.9618+43.4661L73.0797+44.1734C73.5512+43.7019+74.0227+43.4661+74.7299+43.2304C75.4372+42.9946+76.1444+42.8767+77.0874+42.8767C78.2662+42.8767+79.3271+43.2304+80.0343+43.9376C80.7416+44.6449+81.2131+45.5879+81.2131+47.0024L81.2131+53.0141C81.2131+53.3677+81.0952+53.7213+80.9774+53.8392C80.8595+54.0749+80.5058+54.0749+80.0343+54.0749L77.7947+54.0749C77.3232+54.0749+77.0874+53.9571+76.8517+53.8392C76.6159+53.6034+76.6159+53.3677+76.6159+53.0141L76.6159+47.2382C76.6159+46.7666+76.4981+46.413+76.2623+46.2951C76.0266+46.0594+75.7908+45.9415+75.3193+45.9415C74.8478+45.9415+74.4942+46.0594+74.2584+46.2951C74.0227+46.5309+73.9048+46.8845+73.9048+47.2382L73.9048+52.8962C73.9048+53.2498+73.7869+53.6034+73.669+53.7213C73.5512+53.9571+73.1975+53.9571+72.726+53.9571L70.4864+53.9571L70.4864+54.0749Z" opacity="1"/>
<path fill="#000000" opacity="1" d="M89.2286+54.4286C87.1069+54.4286+85.4566+53.9571+84.2779+52.8962C83.0991+51.9532+82.5097+50.5387+82.5097+48.6527C82.5097+47.4739+82.7455+46.5309+83.3349+45.5879C83.8064+44.7628+84.6315+44.0555+85.5745+43.584C86.6354+43.1125+87.8141+42.8767+89.1108+42.8767C90.1717+42.8767+90.9968+42.9946+91.704+43.2304C92.4113+43.4661+93.1185+43.7019+93.5901+44.1734C93.7079+44.2913+93.8258+44.4091+93.8258+44.527C93.8258+44.6449+93.7079+44.7628+93.5901+44.9985L92.647+46.6488C92.5292+46.8845+92.4113+47.0024+92.2934+47.0024C92.1755+47.0024+92.0577+46.8845+91.8219+46.7666C91.4683+46.5309+90.9968+46.2951+90.6432+46.1773C90.2895+46.0594+89.818+45.9415+89.3465+45.9415C88.6393+45.9415+87.932+46.1773+87.4605+46.6488C86.989+47.1203+86.7533+47.8275+86.7533+48.6527C86.7533+49.4778+86.989+50.185+87.4605+50.6566C87.932+51.1281+88.5214+51.3638+89.3465+51.3638C89.818+51.3638+90.2895+51.2459+90.6432+51.1281C90.9968+51.0102+91.4683+50.7744+91.8219+50.5387C92.0577+50.4208+92.1755+50.3029+92.2934+50.3029C92.4113+50.3029+92.5292+50.4208+92.647+50.6566L93.7079+52.4247C93.8258+52.5426+93.8258+52.6604+93.8258+52.7783C93.8258+52.8962+93.7079+53.0141+93.5901+53.1319C93.0007+53.4856+92.2934+53.8392+91.4683+54.0749C91.1147+54.3107+90.2895+54.4286+89.2286+54.4286Z"/>
<path fill="#000000" opacity="1" d="M99.9554+54.4286C98.5408+54.4286+97.3621+53.9571+96.537+53.0141C95.7118+52.0711+95.2403+50.7744+95.2403+49.1242C95.2403+47.8275+95.4761+46.7666+96.0655+45.8236C96.6548+44.8806+97.48+44.1734+98.5408+43.584C99.6017+43.1125+100.898+42.7589+102.195+42.7589C103.374+42.7589+104.317+42.8767+105.26+43.1125C106.203+43.3483+106.91+43.7019+107.735+44.1734L107.735+53.2498C107.735+53.4856+107.735+53.7213+107.617+53.8392C107.499+53.9571+107.264+53.9571+107.028+53.9571L104.67+53.9571C104.553+53.9571+104.317+53.9571+104.317+53.8392C104.199+53.7213+104.199+53.7213+104.081+53.6034L103.727+52.8962C103.256+53.3677+102.784+53.7213+102.195+53.9571C101.606+54.3107+100.898+54.4286+99.9554+54.4286ZM101.723+51.3638C102.313+51.3638+102.784+51.2459+103.138+50.8923C103.492+50.6566+103.61+50.185+103.61+49.7135L103.61+46.1773C103.374+46.0594+102.902+45.9415+102.549+45.9415C101.723+45.9415+101.134+46.1773+100.663+46.7667C100.191+47.356+99.9554+48.0633+99.9554+49.1242C99.8375+50.5387+100.427+51.3638+101.723+51.3638Z"/>
<path fill="#000000" d="M122.116+53.2498C122.234+53.3677+122.234+53.4856+122.234+53.6034C122.234+53.7213+122.234+53.8392+122.116+53.9571C121.998+54.0749+121.88+54.0749+121.762+54.0749L118.226+54.0749C117.99+54.0749+117.872+54.0749+117.755+54.0749C117.637+54.0749+117.519+53.9571+117.401+53.8392L114.336+49.5957L114.336+52.8962C114.336+53.2498+114.218+53.6034+114.1+53.7213C113.865+53.9571+113.629+53.9571+113.157+53.9571L110.918+53.9571C110.446+53.9571+110.211+53.8392+109.975+53.7213C109.857+53.4856+109.739+53.2498+109.739+52.8962L109.739+39.812C109.739+39.4583+109.857+39.1047+109.975+38.9868C110.211+38.7511+110.446+38.6332+110.918+38.6332L113.157+38.6332C113.629+38.6332+113.865+38.7511+114.1+38.9868C114.336+39.2226+114.336+39.4583+114.336+39.812L114.336+47.356L117.283+43.4661C117.401+43.3483+117.519+43.2304+117.637+43.2304C117.755+43.2304+117.872+43.1125+118.108+43.1125L121.644+43.1125C121.762+43.1125+121.88+43.1125+121.998+43.2304C122.116+43.3483+122.116+43.4661+122.116+43.584C122.116+43.7019+122.116+43.8198+121.998+43.9376L118.108+48.4169L122.116+53.2498Z" opacity="1"/>
<path fill="#000000" opacity="1" d="M129.424+54.4286C128.128+54.4286+127.067+54.1928+126.006+53.8392C125.063+53.3677+124.238+52.7783+123.648+51.9532C123.059+51.1281+122.823+50.0672+122.823+48.8884C122.823+47.0024+123.413+45.47+124.474+44.527C125.534+43.4661+127.185+42.9946+129.189+42.9946C131.192+42.9946+132.725+43.4661+133.668+44.527C134.729+45.47+135.2+46.8845+135.2+48.6527C135.2+49.3599+134.847+49.8314+134.257+49.8314L127.185+49.8314C127.185+50.5387+127.42+51.0102+127.892+51.3638C128.363+51.7174+129.189+51.8353+130.132+51.8353C130.721+51.8353+131.31+51.8353+131.664+51.7174C132.135+51.5996+132.489+51.3638+132.961+51.2459C133.196+51.1281+133.314+51.1281+133.314+51.1281C133.432+51.1281+133.55+51.2459+133.668+51.3638L134.493+52.7783C134.611+52.8962+134.611+53.0141+134.611+53.1319C134.611+53.2498+134.493+53.3677+134.375+53.4856C133.786+53.8392+133.078+54.1928+132.253+54.4286C131.31+54.3107+130.485+54.4286+129.424+54.4286ZM131.192+47.356C131.192+46.7666+131.075+46.2951+130.721+46.0594C130.367+45.7058+129.896+45.5879+129.189+45.5879C128.481+45.5879+128.01+45.7058+127.656+46.0594C127.303+46.413+127.185+46.7666+127.185+47.356L131.192+47.356Z"/>
<path fill="#000000" d="M143.098+54.4286C141.801+54.4286+140.622+54.3107+139.444+54.0749C138.265+53.8392+137.44+53.3677+136.733+52.8962C136.497+52.7783+136.379+52.5426+136.379+52.4247C136.379+52.3068+136.379+52.1889+136.497+52.0711L137.558+50.3029C137.676+50.0672+137.793+50.0672+137.911+50.0672C138.029+50.0672+138.147+50.0672+138.265+50.185C138.854+50.5387+139.444+50.7744+140.151+51.0102C140.858+51.2459+141.565+51.3638+142.273+51.3638C142.98+51.3638+143.452+51.2459+143.805+51.0102C144.159+50.7744+144.277+50.4208+144.277+49.9493C144.277+49.4778+144.041+49.1242+143.687+48.8884C143.334+48.6527+142.626+48.299+141.565+47.9454C140.033+47.356+138.854+46.7666+138.029+46.0594C137.204+45.3521+136.733+44.2913+136.733+43.1125C136.733+41.5801+137.322+40.5192+138.383+39.6941C139.444+38.869+140.858+38.5153+142.626+38.5153C143.923+38.5153+144.984+38.6332+145.809+38.869C146.752+39.1047+147.459+39.4584+148.049+39.812C148.284+40.0477+148.402+40.1656+148.402+40.4014C148.402+40.5192+148.402+40.6371+148.284+40.755L147.224+42.5231C147.106+42.7589+146.988+42.7589+146.87+42.7589C146.752+42.7589+146.634+42.7589+146.516+42.641C145.691+42.0516+144.63+41.8159+143.334+41.8159C142.626+41.8159+142.155+41.9337+141.801+42.1695C141.448+42.4052+141.33+42.7589+141.33+43.2304C141.33+43.584+141.448+43.8198+141.565+44.0555C141.801+44.2913+142.037+44.4091+142.273+44.6449C142.626+44.7628+143.098+44.9985+143.687+45.2343L144.159+45.3521C145.22+45.8236+146.163+46.1773+146.752+46.6488C147.459+47.0024+147.931+47.5918+148.284+48.1812C148.638+48.7705+148.756+49.4778+148.756+50.3029C148.756+51.5996+148.284+52.7783+147.224+53.4856C146.516+53.9571+144.984+54.4286+143.098+54.4286Z" opacity="1"/>
<path d="M153.825+54.0749C153.589+54.0749+153.471+54.0749+153.353+53.9571C153.235+53.8392+153.117+53.7213+153.117+53.4856L150.17+43.7019C150.17+43.584+150.17+43.584+150.17+43.4661C150.17+43.2304+150.288+43.1125+150.642+43.1125L153.589+43.1125C153.825+43.1125+153.942+43.1125+154.06+43.2304C154.178+43.3482+154.178+43.3482+154.296+43.584L155.475+48.7705L157.007+44.6449C157.125+44.4091+157.125+44.2913+157.243+44.2913C157.361+44.1734+157.479+44.1734+157.714+44.1734L159.129+44.1734C159.365+44.1734+159.483+44.1734+159.6+44.2913C159.718+44.4091+159.718+44.527+159.836+44.6449L161.369+48.7705L162.665+43.584C162.665+43.4661+162.783+43.3482+162.901+43.2304C163.019+43.1125+163.137+43.1125+163.255+43.1125L166.319+43.1125C166.673+43.1125+166.791+43.2304+166.791+43.4661C166.791+43.4661+166.791+43.584+166.791+43.7019L163.844+53.4856C163.726+53.7213+163.726+53.8392+163.608+53.9571C163.49+54.0749+163.373+54.0749+163.137+54.0749L160.897+54.0749C160.661+54.0749+160.544+54.0749+160.426+53.9571C160.308+53.8392+160.19+53.7213+160.19+53.4856L158.657+49.3599L157.125+53.4856C157.007+53.7213+157.007+53.8392+156.889+53.9571C156.771+54.0749+156.654+54.0749+156.418+54.0749L153.825+54.0749Z" opacity="1" fill="#000000"/>
<path opacity="1" fill="#000000" d="M172.213+54.4286C170.799+54.4286+169.62+53.9571+168.795+53.0141C167.97+52.0711+167.498+50.7744+167.498+49.1242C167.498+47.8275+167.734+46.7666+168.323+45.8236C168.913+44.8806+169.738+44.1734+170.799+43.584C171.86+43.1125+173.156+42.7589+174.453+42.7589C175.632+42.7589+176.575+42.8767+177.518+43.1125C178.461+43.3483+179.168+43.7019+179.993+44.1734L179.993+53.2498C179.993+53.4856+179.993+53.7213+179.875+53.8392C179.757+53.9571+179.522+53.9571+179.286+53.9571L176.928+53.9571C176.81+53.9571+176.692+53.9571+176.575+53.8392C176.457+53.7213+176.457+53.7213+176.339+53.6034L175.985+52.8962C175.514+53.3677+175.042+53.7213+174.453+53.9571C173.863+54.3107+173.156+54.4286+172.213+54.4286ZM173.981+51.3638C174.571+51.3638+175.042+51.2459+175.396+50.8923C175.749+50.6566+175.867+50.185+175.867+49.7135L175.867+46.1773C175.632+46.0594+175.16+45.9415+174.806+45.9415C173.981+45.9415+173.392+46.1773+172.92+46.7667C172.449+47.356+172.213+48.0633+172.213+49.1242C172.095+50.5387+172.685+51.3638+173.981+51.3638Z"/>
<path fill="#000000" opacity="1" d="M183.176+58.6721C182.704+58.6721+182.468+58.5542+182.233+58.4364C182.115+58.2006+181.997+57.9648+181.997+57.6112L181.997+44.6449C182.704+44.1734+183.529+43.7019+184.59+43.4661C185.651+43.1125+186.712+42.9946+187.773+42.9946C192.37+42.9946+194.61+44.8806+194.61+48.7705C194.61+50.5387+194.138+51.9532+193.195+53.0141C192.252+54.0749+190.838+54.5464+189.069+54.5464C188.598+54.5464+188.126+54.4286+187.655+54.3107C187.183+54.1928+186.83+54.0749+186.476+53.8392L186.476+57.6112C186.476+57.9648+186.358+58.3185+186.24+58.4364C186.005+58.6721+185.769+58.6721+185.297+58.6721C185.297+58.6721+183.176+58.6721+183.176+58.6721ZM188.126+51.3638C188.834+51.3638+189.305+51.1281+189.541+50.6566C189.895+50.185+190.012+49.4778+190.012+48.6527C190.012+47.7097+189.777+47.0024+189.423+46.5309C189.069+46.1773+188.48+45.9415+187.655+45.9415C187.183+45.9415+186.712+46.0594+186.476+46.1773L186.476+49.7135C186.476+50.185+186.594+50.6566+186.948+50.8923C187.183+51.2459+187.655+51.3638+188.126+51.3638Z"/>
<path fill="#633001" d="M11.1949+36.04C10.7234+33.6824+12.6094+31.4428+14.9669+31.4428C17.0887+31.4428+18.8568+33.2109+18.8568+35.3327L18.8568+40.0477C19.4462+40.0477+19.9177+40.0477+20.5071+40.0477C20.9786+40.0477+21.5679+40.0477+22.0395+40.0477L22.0395+35.3327C22.0395+33.2109+23.8076+31.4428+25.9294+31.4428C28.2869+31.4428+30.1729+33.6824+29.7014+36.04L28.6405+41.5801C32.1768+43.1125+34.8879+45.8236+34.8879+49.242L34.8879+51.2459C34.8879+54.075+33.0019+56.4325+30.4086+57.9649C27.8154+59.6151+24.2791+60.5581+20.3892+60.5581C16.4993+60.5581+12.963+59.6151+10.3697+57.9649C7.77648+56.4325+5.89047+54.0749+5.89047+51.2459L5.89047+49.242C5.89047+45.8236+8.60161+43.1125+12.1379+41.5801L11.1949+36.04ZM27.3439+42.4052L28.5226+35.9221C28.8762+34.2718+27.5796+32.7394+25.9294+32.7394C24.397+32.7394+23.2182+33.9182+23.2182+35.4506L23.2182+41.4622C22.8646+41.4622+22.3931+41.3444+22.0395+41.3444C21.5679+41.3444+20.9786+41.3444+20.5071+41.3444C19.9177+41.3444+19.4462+41.3444+18.8568+41.4622C18.5032+41.4622+18.0317+41.5801+17.678+41.5801L17.678+35.5684C17.678+34.0361+16.4993+32.8573+14.9669+32.8573C13.3166+32.8573+12.02+34.3897+12.3736+36.04L13.5524+42.641C9.78037+44.0555+7.1871+46.6488+7.1871+49.5957L7.1871+51.5996C7.1871+56.0788+13.0809+59.733+20.3892+59.733C27.6975+59.733+33.5913+56.0788+33.5913+51.5996L33.5913+49.5957C33.7092+46.413+31.1159+43.8198+27.3439+42.4052Z" opacity="1" fill-rule="evenodd"/>
<path fill="#fedc90" opacity="1" d="M33.7092+51.3638C33.7092+55.8431+27.8154+59.4972+20.5071+59.4972C13.1988+59.4972+7.30498+55.8431+7.30498+51.3638L7.30498+49.3599L33.827+49.3599L33.827+51.3638L33.7092+51.3638Z"/>
<path opacity="1" d="M12.3736+35.8042C12.02+34.1539+13.3166+32.6216+14.9669+32.6216C16.4993+32.6216+17.678+33.8003+17.678+35.3327L17.678+41.4622C18.6211+41.3444+19.5641+41.2265+20.5071+41.2265C21.4501+41.2265+22.3931+41.3444+23.2182+41.3444L23.2182+35.3327C23.2182+33.8003+24.397+32.6216+25.9294+32.6216C27.5796+32.6216+28.8762+34.1539+28.5226+35.8042L27.3439+42.2874C31.2338+43.7019+33.827+46.2951+33.827+49.242C33.827+53.7213+27.9332+57.3755+20.6249+57.3755C13.3166+57.3755+7.42285+53.7213+7.42285+49.242C7.42285+46.2951+10.0161+43.7019+13.7881+42.2874L12.3736+35.8042Z" fill="#d1884f" fill-rule="evenodd"/>
<path fill="#633001" opacity="1" d="M16.8529+48.7705C16.8529+49.9493+16.1457+51.0102+15.4384+51.0102C14.7312+51.0102+14.0239+50.0672+14.0239+48.7705C14.0239+47.5918+14.7312+46.5309+15.4384+46.5309C16.1457+46.5309+16.8529+47.4739+16.8529+48.7705Z"/>
<path d="M26.9902+48.7705C26.9902+49.9493+26.283+51.0102+25.5757+51.0102C24.7506+51.0102+24.1612+50.0672+24.1612+48.7705C24.1612+47.5918+24.8685+46.5309+25.5757+46.5309C26.283+46.5309+26.9902+47.4739+26.9902+48.7705Z" fill="#633001" opacity="1"/>
</g>
</svg>
