<?xml version="1.0" encoding="UTF-8" standalone="no"?> <!-- Created with Vectornator for iOS (http://vectornator.io/) --><!DOCTYPE svg PUBLIC "-//W3C//DTD SVG 1.1//EN" "http://www.w3.org/Graphics/SVG/1.1/DTD/svg11.dtd">
<svg height="100%" version="1.1" xmlns:vectornator="http://vectornator.io" xml:space="preserve" viewBox="0 0 200 105" xmlns="http://www.w3.org/2000/svg" xmlns:xlink="http://www.w3.org/1999/xlink" style="fill-rule:nonzero;clip-rule:evenodd;stroke-linecap:round;stroke-linejoin:round;" width="100%">
<metadata>
<vectornator:setting value="true" key="VNDimensionsVisible"/>
<vectornator:setting key="WDSnapToEdges" value="false"/>
<vectornator:setting value="false" key="IsTimeLapseWatermarkDisabled"/>
<vectornator:setting key="WDUnits" value="Points"/>
<vectornator:setting value="false" key="WDDisplayWhiteBackground"/>
<vectornator:setting key="WDSnapToPoints" value="false"/>
<vectornator:setting key="UndoHistoryDisabled" value="true"/>
<vectornator:setting value="true" key="WDGuidesVisible"/>
<vectornator:setting value="false" key="WDIsolateActiveLayer"/>
<vectornator:setting key="WDCMYKEnabledKey" value="false"/>
<vectornator:setting key="WDOutlineMode" value="false"/>
<vectornator:setting value="false" key="WDDynamicGuides"/>
<vectornator:setting key="WDSnapToGrid" value="false"/>
<vectornator:setting value="true" key="WDRulersVisible"/>
<vectornator:setting value="true" key="VNSnapToGuides"/>
</metadata>
<defs/>
<g id="Katman 1" vectornator:layerName="Katman 1">
<path d="M76.1915+41.392L76.1915+60.9007L81.003+60.9007L85.8146+60.9007L85.8146+53.4646C85.8146+48.5437+85.8365+45.8317+85.8802+45.4818C85.9896+44.7163+86.252+43.9727+86.6238+43.426C87.28+42.4418+88.2423+41.9825+89.5326+42.07C91.2167+42.1575+92.2009+43.1635+92.4852+45.0444C92.5289+45.3287+92.5508+48.2813+92.5508+53.2022L92.5508+60.9007L97.3624+60.9007L102.174+60.9007L102.174+51.9118C102.174+44.3227+102.152+42.7698+102.065+42.0262C101.758+39.3361+100.84+37.2365+99.287+35.6837C97.9529+34.3496+96.2907+33.5622+94.2567+33.2779C93.4694+33.1686+91.4573+33.2342+90.7574+33.3873C89.0296+33.7591+87.6518+34.5027+86.427+35.7275L85.749+36.4054L85.749+29.1444L85.749+21.8833L80.9812+21.8833L76.2134+21.8833L76.2134+41.392L76.1915+41.392ZM178.262+22.1676C178+22.7581+168.245+46.3566+168.245+46.4004C168.245+46.4223+170.804+46.4223+173.932+46.4223L179.618+46.4004L184.67+34.1965C187.448+27.4822+189.723+21.9708+189.744+21.927C189.744+21.9051+187.186+21.8833+184.08+21.8833L178.415+21.8833L178.262+22.1676ZM55.13+33.2561C53.0085+33.5622+51.4119+34.1528+49.7935+35.2244C46.5566+37.3678+44.3477+40.9764+43.7353+45.1319C43.451+47.0565+43.5822+49.4842+44.0415+51.3432C45.2225+56.0235+48.3719+59.5884+52.5055+60.9663C54.0145+61.4693+54.5613+61.5568+56.3985+61.5568C57.7326+61.5568+58.1481+61.5349+58.6293+61.4256C60.5758+61.01+61.9974+60.2664+63.1784+59.0854L63.7908+58.473L63.7908+59.6978L63.7908+60.9007L68.4274+60.9007L73.064+60.9007L73.064+47.3627L73.064+33.8247L68.4274+33.8247L63.7908+33.8247L63.7908+35.0713L63.7908+36.318L63.3534+35.8587C62.2379+34.6995+60.7289+33.8684+58.848+33.431C58.2137+33.2779+57.9294+33.2561+56.7265+33.2342C55.9829+33.2342+55.2612+33.2342+55.13+33.2561ZM116.434+33.3435C113.809+33.6935+111.163+34.8308+109.194+36.4273C105.367+39.533+103.508+44.5414+104.252+49.6591C105.083+55.3236+109.085+59.7415+114.684+61.185C115.931+61.5131+117.068+61.6443+118.577+61.6443C121.201+61.6443+123.192+61.185+125.379+60.1133C129.512+58.0575+132.246+54.2301+132.924+49.5716C133.077+48.4344+133.077+46.4441+132.924+45.3287C132.574+43.0104+131.721+40.8671+130.409+39.0299C129.884+38.2863+128.55+36.9085+127.85+36.3617C125.751+34.7433+123.323+33.7153+120.655+33.3873C119.583+33.1904+117.483+33.1904+116.434+33.3435ZM146.987+33.3435C144.406+33.6935+141.935+34.7214+139.879+36.318C139.157+36.8866+137.845+38.2645+137.32+38.9862C136.008+40.8233+135.155+42.9667+134.805+45.285C134.63+46.4004+134.63+48.3906+134.805+49.5279C135.68+55.5424+140.032+60.1352+145.981+61.3162C147.118+61.5349+147.796+61.6006+149.152+61.6006C151.755+61.6006+153.986+61.0975+156.107+60.004C161.728+57.1171+164.615+50.8839+163.325+44.432C162.144+38.4832+157.398+34.1528+151.164+33.3435C150.136+33.1904+148.015+33.1904+146.987+33.3435ZM12.7444+33.8903C12.7444+33.9122+15.3252+40.036+18.4964+47.5158C21.6677+54.9737+24.2484+61.1194+24.2484+61.1631C24.2484+61.2069+23.308+63.4158+22.1926+66.1059C21.0553+68.7742+20.1367+70.9831+20.1367+71.005C20.1367+71.0268+22.4332+71.0268+25.2326+71.005L30.3285+70.9831L38.0051+52.5023C42.2262+42.3324+45.6818+33.9997+45.6818+33.9341C45.6818+33.8684+44.6539+33.8466+40.6296+33.8684L35.5775+33.8903L32.4718+41.7638C30.7659+46.0942+29.3443+49.6154+29.3225+49.5935C29.3006+49.5716+27.9009+46.0286+26.2168+41.72L23.1549+33.8903L17.9497+33.8684C15.0627+33.8466+12.7444+33.8684+12.7444+33.8903ZM59.8322+42.07C61.7568+42.5074+63.2877+44.0165+63.8126+45.9848C64.0095+46.7722+64.0095+48.0626+63.8126+48.828C63.2877+50.7964+61.8224+52.2617+59.8759+52.7648C59.0886+52.9616+57.7982+52.9616+57.0327+52.7648C55.3487+52.3274+53.9052+51.0807+53.2928+49.5498C52.6148+47.8439+52.8335+45.7224+53.8177+44.3008C55.1518+42.3543+57.4264+41.5013+59.8322+42.07ZM119.605+42.0918C121.705+42.4636+123.301+44.0165+123.826+46.1379C124.001+46.8378+123.979+48.1282+123.782+48.8499C123.279+50.7308+121.879+52.1743+120.02+52.6773C119.386+52.8523+117.79+52.8523+117.177+52.6773C115.646+52.2617+114.422+51.2338+113.765+49.8122C113.372+48.9593+113.262+48.4344+113.262+47.4064C113.262+46.4879+113.35+46.0286+113.656+45.2412C114.028+44.3008+114.75+43.426+115.603+42.8573C116.696+42.1356+118.227+41.8294+119.605+42.0918ZM150.158+42.0918C151.952+42.4199+153.417+43.6009+154.095+45.2631C154.401+46.0505+154.489+46.5097+154.489+47.4283C154.489+48.4344+154.379+48.9811+153.986+49.8341C153.33+51.2557+152.105+52.2836+150.574+52.6992C149.94+52.8741+148.365+52.8741+147.731+52.6992C145.872+52.1961+144.472+50.7527+143.969+48.8718C143.772+48.0844+143.772+46.7941+143.969+46.0286C144.603+43.6228+146.637+42.0481+149.13+42.0262C149.393+41.9825+149.852+42.0262+150.158+42.0918ZM170.498+48.7843C167.721+49.1342+165.512+51.1245+164.921+53.8364C164.746+54.6019+164.768+55.9142+164.965+56.6796C165.555+59.0417+167.371+60.7913+169.733+61.2725C170.039+61.3381+170.608+61.3818+171.045+61.3818C172.86+61.3818+174.304+60.7913+175.572+59.501C176.863+58.2106+177.453+56.789+177.453+54.9518C177.453+52.6773+176.425+50.7964+174.522+49.6372C173.385+48.9593+171.789+48.6093+170.498+48.7843ZM91.4135+63.4814C89.4889+64.1157+88.6359+66.3028+89.642+68.0306C89.9044+68.4898+90.5387+69.0366+91.0636+69.2772C91.501+69.4959+91.5666+69.4959+92.3758+69.4959C93.1632+69.4959+93.2288+69.4959+93.6881+69.2772C94.3005+68.9929+94.9566+68.3367+95.219+67.7681C95.9626+66.2153+95.2847+64.4+93.6881+63.6564C93.2069+63.4377+93.0757+63.394+92.4852+63.3721C91.9603+63.3502+91.7197+63.3721+91.4135+63.4814ZM83.387+63.6127C80.8062+64.1376+79.1222+65.756+78.4879+68.3586C78.4004+68.7523+78.3348+69.2772+78.3129+69.9333L78.2692+70.9175L77.2413+70.9175L76.2134+70.9175L76.2352+73.192L76.2571+75.4666L77.285+75.4885L78.3129+75.5103L78.3129+80.8906L78.3129+86.2708L81.0905+86.2708L83.8681+86.2708L83.8681+80.8906L83.8681+75.5103L85.7709+75.4885L87.6736+75.4666L87.6955+73.192L87.7174+70.9175L85.7927+70.9175L83.8681+70.9175L83.9119+70.4145C84.0212+69.2991+84.4586+68.6648+85.3553+68.4024C85.9458+68.2274+86.7988+68.2493+87.4549+68.468C87.6736+68.5554+87.8705+68.6211+87.8923+68.6211C87.9142+68.6211+87.9142+67.5713+87.9142+66.3028L87.9142+63.9845L87.5205+63.8314C86.8425+63.5689+86.1645+63.4814+85.071+63.4814C84.3493+63.5033+83.8025+63.547+83.387+63.6127ZM106.176+70.6113C104.995+70.8519+104.055+71.4424+103.421+72.2516L103.114+72.6671L103.114+71.7923L103.114+70.9175L100.293+70.9175L97.4717+70.9175L97.4717+78.616L97.4717+86.3145L100.293+86.3145L103.114+86.3145L103.114+82.1153C103.114+79.7095+103.136+77.7412+103.18+77.5006C103.267+76.9538+103.617+76.2758+103.924+76.0352C104.733+75.4229+106.023+75.5541+106.548+76.3414C106.964+76.9538+106.964+76.8663+106.985+81.7873L107.007+86.2926L109.829+86.2926L112.65+86.2926L112.65+81.2405C112.65+75.8821+112.628+75.2698+112.322+74.2637C112.038+73.3014+111.666+72.6453+110.966+71.9454C110.31+71.2893+109.741+70.9394+108.866+70.6988C108.21+70.5238+106.832+70.4801+106.176+70.6113ZM120.414+70.5676C119.496+70.6988+118.14+71.2237+117.44+71.7486C115.799+72.9296+114.684+74.7886+114.29+76.9538C114.137+77.8068+114.137+79.5346+114.29+80.3438C114.553+81.7435+115.1+82.9683+115.865+83.9962C116.893+85.3303+118.336+86.2708+119.955+86.5988C120.83+86.7738+122.317+86.7519+123.061+86.5332C123.913+86.2708+124.635+85.8771+125.248+85.3085L125.816+84.7836L125.816+85.549L125.816+86.3145L128.572+86.3145L131.35+86.3145L131.35+78.616L131.35+70.9175L128.572+70.9175L125.794+70.9175L125.794+71.7048L125.794+72.4922L125.423+72.0985C124.701+71.333+123.651+70.7863+122.47+70.5894C121.923+70.5238+120.895+70.5019+120.414+70.5676ZM142.241+70.6332C141.257+70.83+140.12+71.5517+139.529+72.3172L139.289+72.6234L139.289+71.7705L139.289+70.9175L136.445+70.9394L133.602+70.9612L133.58+78.6379L133.558+86.3145L136.402+86.3145L139.245+86.3145L139.245+81.9404C139.245+77.3256+139.245+77.2381+139.573+76.6039C139.879+76.0134+140.47+75.6634+141.148+75.6634C141.76+75.6634+142.088+75.7947+142.438+76.1446C143.05+76.757+143.029+76.5164+143.05+81.7216L143.072+86.2926L145.894+86.2926L148.715+86.2926L148.693+80.7156C148.671+75.2042+148.671+75.1167+148.518+74.548C148.431+74.22+148.212+73.6295+148.015+73.2358C147.731+72.6453+147.578+72.4266+147.118+71.9892C146.528+71.3986+146.047+71.0706+145.391+70.8519C144.472+70.5019+143.225+70.4145+142.241+70.6332ZM157.113+70.6113C154.62+71.005+152.608+72.3391+151.383+74.3731C151.011+74.9854+150.727+75.6853+150.508+76.5383C150.333+77.2163+150.311+77.3912+150.311+78.5723C150.311+79.972+150.377+80.4313+150.705+81.4373C151.558+84.0618+153.701+85.9208+156.545+86.5551C157.004+86.6644+157.419+86.6863+158.447+86.6863C159.913+86.6863+160.503+86.5769+161.575+86.1395L162.122+85.9208L162.144+83.3401L162.165+80.7593L161.684+81.0436C161.006+81.4373+160.438+81.6123+159.585+81.656C158.71+81.6998+158.229+81.6123+157.573+81.2842C156.982+80.978+156.523+80.4969+156.217+79.8845C156.02+79.4471+155.998+79.3596+155.998+78.6816C155.998+78.0911+156.02+77.8724+156.151+77.5443C156.61+76.3852+157.704+75.7072+159.147+75.6416C160.175+75.5978+160.613+75.7072+162.078+76.4508C162.1+76.4727+162.122+75.3135+162.122+73.9138L162.122+71.333L161.684+71.1581C160.394+70.5676+158.6+70.3707+157.113+70.6113ZM169.908+70.6113C165.621+71.3768+162.8+75.1167+163.215+79.5346C163.368+81.0874+163.762+82.3121+164.527+83.4494C165.599+85.0679+167.196+86.0958+169.361+86.5769C170.279+86.7738+172.685+86.7519+173.669+86.5332C175.222+86.2051+176.6+85.4834+177.584+84.4774C178.044+84.0181+178.809+83.012+178.743+82.9464C178.722+82.9245+177.65+82.509+176.36+82.006L173.997+81.0874L173.648+81.4373C173.21+81.8747+172.86+82.0934+172.335+82.2247C170.673+82.6621+169.033+81.7873+168.749+80.3438L168.683+80.0376L173.976+80.0157L179.268+79.9938L179.268+78.7035C179.268+77.7412+179.225+77.26+179.137+76.8226C178.765+75.0948+178.087+73.7607+176.972+72.6671C175.922+71.6174+174.741+71.005+173.145+70.655C172.445+70.5238+170.651+70.4801+169.908+70.6113ZM89.5545+78.616L89.5545+86.3145L92.3758+86.3145L95.1972+86.3145L95.1972+78.616L95.1972+70.9175L92.3758+70.9175L89.5545+70.9175L89.5545+78.616ZM172.16+74.9198C172.554+75.0292+172.795+75.1604+173.145+75.4885C173.494+75.7947+173.691+76.1446+173.779+76.582L173.844+76.8663L171.286+76.8663C168.399+76.8663+168.617+76.9319+168.858+76.2758C169.295+75.1167+170.717+74.548+172.16+74.9198ZM123.673+75.6634C124.438+75.8603+125.269+76.5383+125.619+77.26C126.407+78.9441+125.619+80.8687+123.87+81.5029C123.345+81.6998+122.383+81.7216+121.836+81.5467C120.895+81.2624+120.108+80.4531+119.824+79.5346C119.714+79.1409+119.692+78.9222+119.714+78.441C119.736+77.9161+119.78+77.763+119.999+77.3038C120.655+75.9478+122.142+75.2916+123.673+75.6634Z" fill-rule="evenodd" opacity="1" fill="#0053ff"/>
</g>
</svg>
